<svg width="350" height="100" viewBox="0 0 350 100" fill="none" xmlns="http://www.w3.org/2000/svg">
<g clip-path="url(#clip0_45_532)">
<path d="M144.57 0.0898438C146.846 0.0896444 149.094 0.11747 151.368 0.152344C180.131 0.593248 189.366 35.6241 171.724 55.2383C163.227 63.5714 155.444 64.1764 144.325 64.1641H131.843C131.722 55.6712 131.834 46.8657 131.832 38.3496L131.852 0.0996094L144.57 0.0898438ZM144.628 1.74023L144.624 62.5156C151.416 62.5662 155.758 61.7005 160.186 55.9707C165.407 48.731 166.776 40.4196 166.77 31.5625C166.763 22.0507 164.845 10.8122 156.622 4.76855C152.71 1.89268 149.296 1.70839 144.628 1.74023Z" fill="white"/>
<path d="M294.675 -2.77148C295.268 -0.411315 295.73 2.98388 296.135 5.43376L298.454 19.4178L305.874 64.1674L293.322 64.1431L288.794 36.2394L286.687 23.4807C282.011 33.6443 277.714 44.2057 273.089 54.4076C271.107 58.7818 269.048 64.1201 266.885 68.2933C265.112 65.4632 261.81 58.2443 260.126 54.8387L249.669 33.7068C247.474 29.2544 245.181 24.3698 242.836 20.044C241.07 34.5908 239.624 49.705 237.638 64.1592L233.874 64.1549L241.582 18.4336L243.729 5.53316C244.125 3.1615 244.59 -0.127662 245.195 -2.39651C245.994 -1.83 270.228 47.3033 272.673 52.1821L287.047 16.1008C289.235 10.6077 292.227 2.37807 294.675 -2.77148Z" fill="white"/>
<path d="M11.2841 -2.40068C12.2229 -1.70656 35.9569 46.7718 38.758 52.1235C40.5567 48.1282 42.5599 42.6353 44.2153 38.4837L55.0785 11.2241C56.6348 7.31901 58.961 0.931819 60.737 -2.7168C61.1921 -1.26465 61.7984 2.90269 62.076 4.57358L64.3078 18.0393L71.948 64.15L59.4028 64.1629L54.8264 36.0213C54.1661 31.8644 53.4846 27.7112 52.7819 23.5614C51.1612 26.6981 49.3137 31.2705 47.8367 34.6403L38.4997 55.9524C36.7945 59.8441 34.8605 64.5544 32.9926 68.2957C31.3852 65.9196 27.6157 57.5473 26.0495 54.5196C20.2433 43.2965 14.8842 31.186 8.94161 20.0821C7.01201 34.6242 5.5127 49.5511 3.75005 64.1433L-0.0825195 64.1681C0.984503 59.3363 1.92269 52.4753 2.77114 47.4407L8.25707 14.8566C9.0277 10.2586 10.1665 1.8477 11.2841 -2.40068Z" fill="white"/>
<path d="M100.74 -0.0129395L101.729 0.00170898C101.838 0.0807031 101.972 0.177101 102.129 0.291748C103.767 4.58751 105.738 10.1299 107.27 14.3337L125.426 64.1404L112.037 64.158L106.347 48.2673L95.457 48.2615L84.8711 48.2527L79.6631 64.1677L75.2041 64.1462L94.4131 14.7166C92.7396 9.81407 91.0405 4.91985 89.3164 0.0349121C93.124 -0.0104486 96.9325 -0.0260437 100.74 -0.0129395ZM95.0439 16.9529C91.7527 26.5556 88.7336 37.1874 85.2998 46.6082L96.2637 46.6326L105.815 46.6277C104.75 43.6367 95.569 17.374 95.0439 16.9529Z" fill="white"/>
<path d="M207.015 -0.0107422C209.352 6.99232 212.34 14.6391 214.9 21.667L230.38 64.1465H217.027C215.088 59.3077 213.104 53.2455 211.317 48.2539L189.848 48.2588C188.11 52.7764 186.171 59.4169 184.616 64.166L180.182 64.1152L199.356 14.7803C198.199 10.6258 195.768 4.27749 194.296 0.0361328L207.015 -0.0107422ZM200.002 16.9287C196.806 26.4595 193.251 37.019 190.315 46.6133L201.111 46.6328L210.719 46.6172C209.583 43.2662 200.982 18.0893 200.002 16.9287Z" fill="white"/>
<path d="M314.699 0.0135471C325.69 -0.112455 336.917 0.00628761 347.926 0.0054812L347.899 4.40829C341.594 3.42104 333.822 2.44529 327.478 1.75943L327.49 27.3532L340.362 27.3647C341.661 27.3659 345.272 27.2921 346.397 27.4548L346.583 27.8072C346.571 28.5364 346.704 28.7533 346.327 29.2186C340.794 29.5073 333.176 29.2718 327.486 29.269L327.488 47.1633L327.501 62.5416L350.061 59.6718C349.627 61.1382 349.041 62.7059 348.531 64.1593L314.707 64.1641C314.449 42.9752 314.699 21.2472 314.699 0.0135471Z" fill="white"/>
<path d="M302.926 76.4995C305.48 76.4816 308.472 76.2964 310.977 76.521C317.056 77.0661 318.989 83.2799 314.031 87.106L314.192 87.1714C318.354 88.9102 319.413 92.565 317.655 96.5747C314.919 100.896 307.529 99.7552 302.896 99.7104L302.926 76.4995ZM313.493 90.7534C311.62 89.3396 309.103 89.6007 306.894 89.6489L306.874 96.1626C308.787 96.1598 311.672 96.3747 313.223 95.3462C314.372 94.006 315.187 92.032 313.493 90.7534ZM306.872 80.0972L306.874 86.1372C308.715 86.164 310.297 86.3663 311.842 85.2329C315.11 80.623 310.241 80.0041 306.872 80.0972Z" fill="white"/>
<path d="M260.798 76.4983C266.494 76.4317 275.696 74.9691 274.625 84.3811C274.399 86.3651 272.919 87.6729 271.36 88.7629C273.953 91.1025 275.97 96.3677 277.559 99.7131C276.224 99.6793 274.766 99.9654 273.502 99.6594C272.831 99.4969 272.717 98.9964 272.391 98.387C271.395 96.2292 270.11 92.942 268.578 91.2473C267.342 89.8799 266.411 89.9243 264.741 89.9231L264.762 99.7083L260.755 99.7112C260.747 92.1638 260.584 83.9965 260.798 76.4983ZM264.754 79.9563L264.737 86.3733C266.498 86.3808 268.175 86.5806 269.637 85.5618C270.681 84.0411 271.339 81.9704 269.504 80.7434C268.016 79.7493 266.447 79.9087 264.754 79.9563Z" fill="white"/>
<path d="M349.911 99.7031L345.667 99.7158C345.018 98.0984 344.496 95.7562 343.474 94.3682C343.169 93.9537 342.486 94.062 341.915 94.0459L334.467 94.04C333.799 95.9285 333.148 97.8232 332.513 99.7227L328.24 99.7266L336.727 76.4961L340.86 76.4893L349.911 99.7031ZM338.731 81.8506C337.707 84.7517 336.697 87.6583 335.703 90.5703L339.152 90.5762L342.179 90.5654C341.67 89.1679 339.353 82.5958 338.731 81.8506Z" fill="white"/>
<path d="M291.546 76.4912C294.026 83.5891 297.817 92.5808 300.607 99.7188L296.347 99.7139C295.623 97.8443 294.925 95.9649 294.252 94.0762L292.398 94.0469L285.194 94.042C284.511 95.6623 283.754 98.0189 283.147 99.7236L278.942 99.7246C281.574 92.1176 284.588 84.0431 287.427 76.498L291.546 76.4912ZM289.406 81.8867C288.374 84.7697 287.362 87.6604 286.372 90.5586L290.281 90.5752L292.862 90.5645C292.447 89.4144 290.039 82.5175 289.406 81.8867Z" fill="white"/>
<path d="M250.288 76.4932L259.388 99.7012L255.091 99.7061C254.438 98.003 253.976 95.6024 252.835 94.3496C252.416 93.889 251.444 94.039 250.763 94.0459L243.905 94.0439L241.938 99.7197L237.705 99.7207L246.188 76.4912L250.288 76.4932ZM245.171 90.5498L249.25 90.5801L251.64 90.5488C251.128 89.1467 248.824 82.5637 248.165 81.8926L245.171 90.5498Z" fill="white"/>
<path d="M321.98 76.4956H325.97C326.051 84.1811 325.972 92.0082 325.972 99.7052L321.978 99.7229C321.889 92.0511 321.95 84.171 321.98 76.4956Z" fill="white"/>
</g>
<defs>
<clipPath id="clip0_45_532">
<rect width="350" height="100" fill="white"/>
</clipPath>
</defs>
</svg>
