<svg width="395" height="100" viewBox="0 0 395 100" fill="none" xmlns="http://www.w3.org/2000/svg">
<g clip-path="url(#clip0_45_493)">
<path d="M13.3031 16.634C14.1706 18.1311 13.8657 22.0504 13.883 24.1089C20.2936 15.9475 31.0744 13.3264 36.681 23.876C40.8799 18.3855 47.1257 14.9578 54.3833 18.7493C56.1388 19.6665 57.8906 22.9447 58.2385 24.9482C60.2569 36.5715 57.2155 51.3046 59.2082 62.7188L45.0414 62.716C45.2921 56.0914 46.423 35.0447 43.7677 30.1346C43.0697 28.8435 42.3819 28.5116 41.0592 28.1307C35.3821 29.5362 36.2099 36.227 36.2519 40.6643C36.2071 47.9932 36.2416 55.3222 36.3556 62.6507C32.4429 62.9051 26.2611 62.7137 22.1771 62.7188C22.9414 57.3195 24.8309 30.0202 19.0198 28.204C13.684 28.5377 13.7181 34.97 13.7326 38.8223C13.7616 46.7847 13.8302 54.7382 13.952 62.6997L-0.181641 62.7351C0.453817 52.0024 0.110174 34.4453 -0.165767 23.5254C4.30345 21.1882 8.79323 18.8912 13.3031 16.634Z" fill="white"/>
<path d="M268 17.1907C292.769 15.375 288.796 34.4931 293.941 51.926C295.659 57.7462 298.125 54.3623 297.877 62.7434C291.593 62.9371 288.072 63.3965 283.337 59.1731C280.784 60.9094 279.873 61.5124 277.02 62.635C272.776 63.687 267.991 63.5551 264.092 61.4241C261.17 59.8623 259.003 57.1911 258.069 54.0129C254.441 41.5905 266.366 36.5647 275.774 33.8831C273.519 24.4321 271.249 23.1127 261.841 25.2903L261.949 18.7424C263.798 18.1825 266.095 17.669 268 17.1907ZM275.601 40.6907C270.778 44.9813 268.696 54.0639 276.343 55.7454C278.267 55.1091 278.132 55.4541 279.346 54.0608C279.911 51.324 277.936 41.5598 275.601 40.6907Z" fill="white"/>
<path d="M366.54 16.7974C380.108 16.1625 385.632 26.2897 386.678 38.3569C379.343 40.9667 370.7 43.5173 363.197 45.938C364.276 48.7363 365 51.0574 366.97 53.3413C371.723 58.8475 378.488 53.7798 381.943 53.9614L382.186 55.2515C382.54 63.1381 379.571 62.0526 372.95 63.1851C343.456 68.227 337.653 19.6706 366.54 16.7974ZM366.241 24.4185L366.068 24.4243C362.09 28.4372 362.189 32.1721 362.212 37.6792C362.217 38.4277 362.235 39.1763 362.268 39.9243L368.034 38.2114L373.007 36.6157C372.899 31.9008 372.727 24.2196 366.241 24.4185Z" fill="white"/>
<path d="M73.7117 17.2437C96.634 15.36 93.6583 36.4492 98.3035 51.937C100.097 57.9174 102.536 54.6896 102.185 62.9155C95.2478 63.0476 93.1429 63.6087 87.5994 59.3979C84.9885 61.2827 83.0014 62.3308 79.9265 63.2271C75.8798 63.4716 72.9742 63.7192 69.2175 61.853C66.0982 60.3271 63.7218 57.6125 62.6208 54.3198C61.5097 51.0692 61.7515 47.5084 63.2917 44.438C66.716 37.6419 73.4825 36.1465 80.1833 33.9331C78.0492 24.7091 75.4801 23.2808 66.3113 25.4419L66.363 18.981C69.1766 18.0832 70.7912 17.7524 73.7117 17.2437ZM80.3835 40.7407C74.9273 45.0286 73.3181 52.6903 80.3875 56.2183C81.6177 55.7244 83.5636 55.1562 84.2 54.0854C84.0802 51.7326 82.1017 42.3198 80.3835 40.7407Z" fill="white"/>
<path d="M171.655 16.7959C185.708 16.5744 190.228 26.0295 191.82 38.3604C183.968 40.7768 176.024 43.4143 168.191 45.9307C169.128 48.9069 170.479 52.0681 172.867 54.1943C177.268 58.1135 183.074 54.1834 186.908 53.8398L187.249 54.7842L187.225 60.8066C183.611 62.102 181.033 62.7873 177.129 63.2695C154.634 66.0474 146.187 38.7824 158.25 23.1484C161.568 18.8492 166.309 17.2545 171.655 16.7959ZM172.336 23.9453C166.483 27.5559 167.056 33.7363 167.075 39.9336L172.102 38.4463C173.986 37.8362 176.545 37.0843 178.323 36.3506C177.764 31.3728 177.654 26.1803 172.336 23.9453Z" fill="white"/>
<path d="M254.301 0.249756C254.628 1.30207 254.534 10.1306 254.53 11.8535L254.446 39.7924C254.427 46.1929 254.133 56.7613 255.431 62.7021L239.916 62.7413C241.148 58.1757 240.168 22.0224 240.149 14.657C240.144 13.0446 239.369 9.93148 238.86 8.28336L254.301 0.249756Z" fill="white"/>
<path d="M222.061 16.7312C227.295 16.2855 230.376 16.7501 235.172 18.6635L235.116 25.6599C219.759 19.0929 217.018 36.5663 221.071 47.2267C223.821 54.4641 228.187 57.4604 235.877 54.4861L235.993 61.5816C230.932 64.3847 219.18 64.4608 214.343 60.8637C199.005 49.4523 201.928 21.1924 222.061 16.7312Z" fill="white"/>
<path d="M335.645 16.5658L335.972 16.6043C336.882 17.4868 336.756 21.7376 336.812 23.2663C338.871 19.8689 345.922 12.9817 349.409 17.3601C349.811 19.1064 348.144 25.815 347.691 27.9426C347.453 27.9374 347.21 27.9337 346.968 27.9309C337.205 27.8371 336.103 32.0185 336.369 40.7838C336.546 46.6881 336.579 52.8342 336.57 58.7521C336.556 59.7249 336.784 61.6849 336.878 62.7286L321.643 62.7375C322.18 57.6491 321.927 50.1129 321.909 44.8438C321.885 38.3336 322.114 30.3316 321.493 23.9516C325.555 21.5911 331.359 18.7987 335.645 16.5658Z" fill="white"/>
<path d="M119.366 16.6367C120.182 17.4813 120.114 22.2549 120.16 23.7309C122.249 20.3439 123.143 19.25 126.501 17.1358C128.548 16.9613 131.177 17.0125 133.279 17.0002L131.014 28.4444C130.415 28.4155 129.814 28.3959 129.213 28.3856C120.228 28.2386 119.552 34.346 119.756 41.6072C119.92 47.4294 119.928 53.3884 119.935 59.2189C120.006 60.174 120.285 61.8269 119.756 62.5219C116.085 62.9835 109.153 62.724 105.211 62.6783C105.794 56.92 105.902 29.399 104.748 24.481C109.605 21.8367 114.478 19.2219 119.366 16.6367Z" fill="white"/>
<path d="M204.076 60.4741C210.659 62.2815 209.87 78.8387 211.658 85.671C213.549 82.4115 220.847 67.3335 222.724 66.2669L223.574 66.5059C225.563 69.174 227.118 83.7414 227.813 88.0227C231.152 85.0974 238.832 70.8535 242.241 72.5194C245.565 83.164 238.762 86.486 251.257 94.6211C251.294 95.8464 251.313 95.4847 250.393 96.5839C240.35 101.411 242.25 81.3286 239.178 78.6912C236.853 79.2341 233.533 86.3507 232.328 88.5366C232.263 88.6533 232.198 88.7686 232.123 88.8816C231.086 90.5578 227.762 94.4302 225.787 94.897C220.072 93.8057 222.645 78.1895 221.006 76.285C217.182 77.7978 214.39 98.3395 208.624 96.9392C206.532 94.4769 205.495 77.9953 204.379 72.6623C198.104 79.4017 193.977 91.5842 188.859 98.9968C188.397 99.667 186.997 99.963 186.053 99.8869L185.417 99.064C185.065 96.4551 186.352 92.7918 187.678 90.5928C193.608 80.7535 198.8 70.671 204.076 60.4741Z" fill="white"/>
<path d="M315.853 16.1184L316.567 16.3358C316.918 18.4158 316.633 26.4377 316.68 28.9602C316.89 39.9099 316.222 51.8796 316.983 62.7253L302.416 62.7328C301.93 62.6558 301.911 62.5162 301.477 62.1484C301.832 49.3315 301.888 36.508 301.65 23.6883C306.118 21.0571 311.221 18.5265 315.853 16.1184Z" fill="white"/>
<path d="M149.246 16.1904C150.157 17.369 149.798 57.2543 149.83 62.6671C145.731 62.9056 139.555 62.7105 135.297 62.7137L134.478 62.3399C135.277 51.6743 134.771 34.8646 134.784 23.7542L149.246 16.1904Z" fill="white"/>
<path d="M263.919 80.3879C269.205 77.3436 273.873 73.8503 278.094 80.1663C277.706 82.5447 275.205 88.9312 277.468 90.4319C285.452 95.7246 291.714 80.0053 295.818 79.3079C298.32 82.0731 292.078 88.2826 301.664 90.259C301.785 91.0236 301.972 92.7548 302.364 93.3098L302.859 93.5774C297.994 94.5329 294.991 92.38 290.696 90.2151C282.264 96.4278 278.444 97.9247 270.843 89.8713C267.626 91.2446 260.492 96.5962 257.285 93.9163C254.712 89.6723 260.278 82.4875 263.919 80.3879ZM272.408 80.1038C269.476 81.1577 262.015 85.2771 261.757 88.7317L262.402 89.592C265.768 88.6065 273.523 85.0986 272.668 80.4241C272.65 80.3229 272.492 80.172 272.408 80.1038Z" fill="white"/>
<path d="M341.056 79.2405C358.322 78.3177 347.807 91.9369 337.699 95.4075C321.792 94.5289 329.407 82.4496 341.056 79.2405ZM341.874 81.5315C338.904 82.7456 332.625 85.1962 334.133 89.3635C335.5 90.6751 336.476 90.9343 338.381 91.2405C341.719 89.9816 346.477 87.3441 346.211 83.2854C344.871 81.8468 344.058 81.741 341.874 81.5315Z" fill="white"/>
<path d="M140.427 -0.0929017C144.596 -0.382727 148.672 0.704363 150.322 4.99857C151.015 6.80787 150.952 8.81937 150.147 10.5818C148.867 13.4256 146.899 14.3465 144.228 15.3798C132.528 16.0108 129.906 3.11833 140.427 -0.0929017Z" fill="white"/>
<path d="M308.018 -0.0934176C312.118 -0.383803 316.212 0.714208 317.921 4.88304C318.659 6.67231 318.636 8.68358 317.856 10.4544C316.609 13.3328 314.518 14.3316 311.842 15.4019C300.595 15.9208 297.233 3.77752 308.018 -0.0934176Z" fill="white"/>
<path d="M365.742 78.1989C372.157 78.0775 370.966 84.8216 374.221 89.5258C378.988 96.423 386.855 92.9982 393.849 94.111C394.55 94.2226 394.424 94.2263 394.788 94.7641C394.41 95.0479 394.003 95.2883 393.574 95.481C388.597 97.7197 380.631 97.5867 375.477 95.5576C371.265 92.9819 368.823 87.4538 366.335 83.0646C361.25 81.9868 358.514 92.9828 354.34 92.1645C349.442 86.8003 361.764 79.8784 365.742 78.1989Z" fill="white"/>
<path d="M301.664 90.2592C307.818 87.5364 313.206 79.1624 318.29 80.1244C322.138 82.1918 326.344 87.7661 324.094 92.2715C322.553 95.3499 317.688 96.2139 315.101 94.0513L315.106 93.4814C318.496 92.2897 323.286 92.1156 321.615 87.0197C321.199 85.7571 320.784 85.2128 319.752 84.409C315.167 82.7304 309.419 91.7655 302.859 93.578L302.364 93.3096C301.972 92.7546 301.785 91.0238 301.664 90.2592Z" fill="white"/>
<path d="M296.813 66.3743C298.26 66.7351 299.796 66.9372 300.683 68.1331C300.992 69.8233 300.908 69.3071 300.137 71.1845C298.662 70.8615 296.841 70.657 295.851 69.5666C295.58 67.8353 295.776 68.1518 296.813 66.3743Z" fill="white"/>
</g>
<defs>
<clipPath id="clip0_45_493">
<rect width="395" height="100" fill="white"/>
</clipPath>
</defs>
</svg>
