<svg width="495" height="100" viewBox="0 0 495 100" fill="none" xmlns="http://www.w3.org/2000/svg">
<g clip-path="url(#clip0_42_2)">
<path d="M171.814 0.214844C199.471 -1.09591 222.972 20.1616 224.344 47.7295C225.716 75.2979 204.441 98.7693 176.79 100.194C149.059 101.623 125.431 80.3392 124.055 52.6904C122.679 25.0416 144.077 1.52954 171.814 0.214844ZM194.664 7.69238C189.637 4.02125 178.304 0.427701 172.132 1.62305C145.78 4.80775 140.315 20.2832 139.454 44.416C138.466 72.1131 142.146 98.5756 176.926 97.3311C186.168 96.0172 194.79 94.2167 200.622 86.2061C207.806 76.3381 208.557 63.3079 208.661 51.4834C208.794 36.413 208.06 17.4754 194.664 7.69238Z" fill="white"/>
<path d="M27.6856 0.560265C28.2638 0.386654 27.9618 0.405041 28.6023 0.674833C34.4715 14.0599 39.9551 29.0148 45.3043 42.6974C49.4177 53.2189 54.7313 65.8811 58.3146 76.4894C59.6092 72.2998 62.0654 66.8328 63.7613 62.5457L73.1995 38.3426C76.6069 29.4766 80.0895 20.6394 83.647 11.8321C84.8239 8.96826 87.0078 3.25088 88.5183 0.755047C93.785 0.583172 99.3379 0.902967 104.716 0.788384C104.417 9.36512 104.781 19.4537 104.719 28.1467C104.548 51.879 105.04 75.7946 104.548 99.5092C99.7966 99.312 94.5784 99.4353 89.8154 99.6443C89.2856 78.8189 90.0401 57.837 89.6677 36.9922C89.4702 25.9644 89.394 14.9873 89.9579 3.96685C87.8799 7.9981 85.0681 13.1099 83.5481 17.2655C73.5885 44.6057 61.5865 71.6665 51.5698 99.0787C48.7956 93.3422 45.5049 83.8568 43.0564 77.6012C37.2259 63.1214 31.4695 48.6123 25.7881 34.0738C22.1202 24.8002 17.6989 12.7065 13.2909 3.98978C12.9352 12.3467 13.4325 23.8891 13.5193 32.5332L13.5606 75.9828L13.5716 90.6648C13.586 92.8412 13.7768 97.1075 13.4967 99.0058C12.6866 100.078 13.1911 99.8005 12.0686 100.076L11.6187 99.5821C10.6922 93.9144 10.9977 85.6391 10.9944 79.6578L11.0484 46.4967L11.0619 18.2134C11.0637 13.013 10.855 5.80123 11.4724 0.831786C16.9469 0.802273 22.2104 0.86582 27.6856 0.560265Z" fill="white"/>
<path d="M403.274 0.685303C405.858 1.236 416.056 1.47801 418.655 1.11378L418.7 48.0089C425.356 48.3471 432.942 48.1527 439.706 48.1429L471.652 48.187C471.356 33.4874 471.443 15.3738 471.913 0.865505C477.305 1.32314 481.153 1.18982 486.559 0.985307L486.562 67.7499C486.559 71.5145 486.872 98.611 486.165 99.8127L485.093 99.8964C480.54 99.5999 476.145 99.6641 471.592 99.6891C471.68 83.1481 471.673 66.6068 471.568 50.0659C453.962 49.9329 436.387 50.2284 418.749 49.9874C418.439 66.3211 418.676 83.3388 418.669 99.7242C413.531 99.6551 408.39 99.6173 403.249 99.6107C403.016 82.0989 403.183 64.2575 403.187 46.7245C403.089 31.378 403.121 16.0311 403.274 0.685303Z" fill="white"/>
<path d="M328.396 1.00531C335.763 0.162601 351.819 0.775438 359.534 0.608772C364.874 0.493841 384.598 0.379613 389.23 1.26399C381.853 3.17996 365.915 2.55669 357.681 2.54835C350.395 2.54106 340.437 2.70704 333.213 2.41781C332.088 2.53378 330.134 2.46051 328.943 2.45252C328.553 16.6793 328.577 30.9143 329.02 45.1397C336.271 45.4171 343.293 45.4466 350.524 45.4449C352.697 45.4442 362.732 45.3793 364.337 45.8518L364.651 46.4418C362.536 48.1984 333.896 47.1654 329.138 46.972C328.961 63.8213 328.94 80.672 329.075 97.522C337.999 97.8977 388.777 97.1063 391.877 98.5754L391.445 99.3261C389.324 100.208 377.189 99.8827 374.271 99.8848C363.055 99.9314 351.84 99.9074 340.625 99.8129C332.485 99.7105 321.863 99.2862 313.838 99.8623L313.788 42.9053C313.788 29.0452 313.624 14.7508 313.922 0.92927C319.191 1.50114 323.116 1.25253 328.396 1.00531Z" fill="white"/>
<path d="M328.396 1.00531C335.763 0.162601 351.82 0.775438 359.534 0.608772C364.874 0.493841 384.598 0.379613 389.23 1.26399C381.853 3.17996 365.915 2.55669 357.681 2.54835C350.395 2.54106 340.437 2.70704 333.213 2.41781C335.599 1.74281 345.637 1.89767 348.807 1.86538L376.298 1.52163L376.18 1.43378L376.639 1.41988C366.048 1.00391 355.449 0.853908 344.847 0.970574C340.51 0.990713 332.74 1.37336 328.79 1.04072L328.396 1.00531Z" fill="white"/>
<path d="M280.418 0.294434C285.386 0.410406 290.355 0.479146 295.324 0.501021C294.683 19.5399 296.173 39.116 295.098 58.2059C294.967 60.5271 294.863 62.8191 294.506 65.1208C294.022 68.3264 293.065 71.443 291.669 74.3705C286.988 84.3014 277.244 93.2778 266.808 97.025C255.116 101.223 244.747 100.515 233.478 95.1423C231.312 94.0785 224.796 90.1618 224.428 87.6663C226.454 87.6135 232.572 92.6062 235.581 93.8059C240.546 95.841 246.654 97.8361 252.101 97.8684C284.233 98.0597 280.259 53.7854 280.226 33.208C280.165 22.2364 280.229 11.2646 280.418 0.294434Z" fill="white"/>
</g>
<defs>
<clipPath id="clip0_42_2">
<rect width="495" height="100" fill="white"/>
</clipPath>
</defs>
</svg>
