<svg width="541" height="100" viewBox="0 0 541 100" fill="none" xmlns="http://www.w3.org/2000/svg">
<g clip-path="url(#clip0_45_185)">
<path d="M514.766 15.4728C519.923 14.788 527.788 16.6921 531.868 20.0578C543.778 29.8866 543.454 56.4251 534.485 68.0168C530.272 73.4628 524.096 75.4456 517.547 76.1603C511.672 76.3876 503.997 75.3665 499.464 71.2541C488.187 61.0206 488.547 34.4054 497.927 23.0978C502.239 17.9023 508.347 15.9636 514.766 15.4728ZM514.288 26.1047C502.724 28.3403 503.896 45.8337 505.259 54.5754C506.361 61.6342 510.374 65.753 517.84 65.4748C529.329 63.032 527.948 45.6205 526.601 36.8654C525.601 30.3804 521.307 25.6962 514.288 26.1047Z" fill="white"/>
<path d="M302.506 15.4668C308.051 14.8821 315.237 16.5621 319.624 20.0947C325.141 24.5411 327.699 31.932 328.271 38.8242C329.782 57.0661 325.991 73.9772 305.267 76.1455C288.583 77.0671 280.183 68.0728 279.042 51.8604C277.782 34.0197 281.914 17.0492 302.506 15.4668ZM301.723 26.1377C290.339 28.6435 291.579 46.3757 293.092 55.1406C294.273 61.9717 298.434 65.7964 305.577 65.4707C317.042 63.0014 315.687 45.525 314.262 36.6729C313.177 29.9287 308.851 25.7682 301.723 26.1377Z" fill="white"/>
<path d="M73.9258 16.1963C84.1949 16.2419 99.1427 14.88 102.638 27.4561C104.023 32.4432 103.752 38.5513 101.13 43.1074C98.6285 47.4269 95.0362 48.9282 90.4756 50.2188C97.3372 53.903 103.857 68.2163 107.856 75.3721L98.2334 75.3691L92.3135 75.3789C89.7744 70.8453 83.8769 57.0852 80.6426 54.4688C79.3547 53.4273 78.1768 53.2527 76.5703 53.4287C75.5258 54.6291 75.9822 72.3301 75.9912 75.376H63.0928L63.0996 16.2148C66.7047 16.2337 70.3204 16.18 73.9258 16.1963ZM75.9795 26.8633L75.9707 43.1934C79.8322 43.2292 84.5717 43.6861 87.793 41.3604C89.0081 40.0196 89.7679 38.8552 90.0049 37.0293C91.402 26.2586 83.5032 26.8388 75.9795 26.8633Z" fill="white"/>
<path d="M340.721 16.2134C347.999 16.2705 355.308 16.0264 362.572 16.3247C370.158 16.6365 378.005 19.2537 380.2 27.3149C381.556 32.2884 381.426 38.1096 378.967 42.7153C376.535 47.2708 372.782 48.8596 368.099 50.2251C374.861 53.7816 381.517 68.3195 385.456 75.3716L375.01 75.3725L369.927 75.3696C367.413 70.9039 361.457 56.9153 358.148 54.3755C356.841 53.3726 355.697 53.2594 354.113 53.4595C353.141 54.6239 353.573 72.2949 353.584 75.3774L340.704 75.3735L340.721 16.2134ZM353.569 26.8706L353.578 43.1948C357.441 43.2309 362.677 43.729 365.7 41.0708C367.086 39.38 367.554 38.1942 367.721 36.0141C368.479 26.1885 360.541 26.7886 353.569 26.8706Z" fill="white"/>
<path d="M441.58 16.2113C448.794 16.2525 456.019 16.0489 463.224 16.3149C470.933 16.5991 478.874 19.1715 481.092 27.3871C482.433 32.3618 482.305 38.0833 479.843 42.6938C477.4 47.2723 473.706 48.8383 468.989 50.2279C474.478 53.1476 476.758 58.3725 479.702 63.5365C481.939 67.4638 484.124 71.429 486.33 75.3754L476.099 75.3715L470.772 75.3803C467.473 69.2423 464.537 62.8693 461.122 56.7924C460.032 54.8495 456.87 52.2328 454.627 53.684C454.114 55.8487 454.39 71.9743 454.407 75.3774H441.563L441.58 16.2113ZM454.388 26.8734V43.1918C458.144 43.2316 463.421 43.7113 466.422 41.2143C467.839 39.5716 468.358 38.4613 468.558 36.3158C469.521 26.1175 461.387 26.7965 454.388 26.8734Z" fill="white"/>
<path d="M36.5527 16.2178C42.8662 35.5288 48.8318 55.9023 54.8652 75.3711L41.1328 75.376C40.6013 73.4061 37.8616 62.9829 37.1631 61.7656L17.2217 61.749L13.3525 75.376L0.166992 75.3789C6.44569 56.1952 12.414 35.5981 18.3496 16.2158L36.5527 16.2178ZM27.166 25.374C25.3314 33.1101 22.719 43.6049 20.167 51.1807L27.5068 51.1836L34.3887 51.1875C32.0451 42.8148 29.6404 34.4739 27.6406 26.0127C27.5806 25.7585 27.3612 25.5377 27.166 25.374Z" fill="white"/>
<path d="M393.236 16.2182L428.819 16.2166L428.827 26.8667L406.183 26.8696C406.076 31.144 406.172 35.7898 406.18 40.0924L425.592 40.0957L425.601 50.6673L406.172 50.6631L406.164 56.5845L406.186 64.7412L429.813 64.7522L429.819 75.3779L393.199 75.3697L393.236 16.2182Z" fill="white"/>
<path d="M108.922 16.2178L151.862 16.2192L151.865 26.8666L136.895 26.8674L136.886 60.846L136.887 75.3684L123.878 75.3825L123.884 26.868L108.911 26.8843C108.897 23.3288 108.9 19.7733 108.922 16.2178Z" fill="white"/>
<path d="M256.417 16.2231L271.477 16.2268C265.616 25.6769 258.902 35.6096 252.809 44.9884C254.791 48.2191 257.711 52.2938 259.876 55.4834L273.122 74.9937C272.325 75.6853 259.071 75.3839 257.003 75.3786L238.496 45.4414C243.427 36.5736 250.967 25.0909 256.417 16.2231Z" fill="white"/>
<path d="M225.129 16.2213L238.16 16.2205L238.16 75.3778L225.116 75.3745L225.129 16.2213Z" fill="white"/>
<path d="M181.157 2.61841L189.049 2.62658L189.055 99.8611L181.161 99.871L181.157 2.61841Z" fill="white"/>
<path d="M290.13 -0.0609788L317.17 -0.0712891L317.167 9.99852L290.091 9.99956C290.051 6.64604 290.065 3.29212 290.13 -0.0609788Z" fill="white"/>
</g>
<defs>
<clipPath id="clip0_45_185">
<rect width="541" height="100" fill="white"/>
</clipPath>
</defs>
</svg>
