<svg width="240" height="100" viewBox="0 0 240 100" fill="none" xmlns="http://www.w3.org/2000/svg">
<g clip-path="url(#clip0_45_76)">
<path d="M21.3677 -0.154541C47.2089 -1.61573 41.5595 38.395 17.8501 44.9998C-8.81971 46.5908 -2.3357 6.12063 21.3677 -0.154541ZM23.3423 1.07495C10.6583 3.9906 6.11524 25.7989 8.00635 36.8679C8.67631 40.7897 11.5868 43.5545 15.6626 43.7673C28.5619 40.8795 32.7031 19.1442 31.2251 7.82397C30.6818 3.66257 27.5332 1.21018 23.3423 1.07495Z" fill="white"/>
<path d="M155.855 -0.17334C180.931 -1.92791 176.193 38.3595 152.191 44.9829C125.271 46.8654 132.131 5.39738 155.855 -0.17334ZM157.792 1.02393C144.994 3.94123 140.397 25.4365 142.213 36.7163C142.887 40.8982 145.871 43.5462 150.125 43.7544C162.136 40.8825 165.591 22.5973 165.946 11.9771C166.131 6.39419 163.968 1.50241 157.792 1.02393Z" fill="white"/>
<path d="M106.825 -0.148413C110.632 -0.518774 118.046 -0.206097 118.49 4.81759C117.711 5.97023 118.219 5.62851 116.988 5.99241C115.035 5.09757 114.353 2.56354 113.009 1.90673C107.74 -0.668051 101.069 5.7681 103.396 11.0185C105.175 15.0332 110.805 11.6733 113.885 12.7368L114.042 13.2625C111.81 14.8863 104.612 15.9894 101.038 19.2302C98.3616 21.6569 96.4658 23.4353 96.0408 27.3879C95.6965 30.4577 96.6208 33.5347 98.6005 35.9066C101.223 39.0543 104.161 39.9826 108.84 40.7015C117.085 42.0192 127.95 33.1406 121.481 24.9632C116.956 19.2419 100.819 25.6244 108.689 32.1437C111.463 32.3696 110.817 30.1902 113.525 29.8457C114.656 30.711 114.425 30.2713 114.664 31.4675C114.03 32.6415 113.38 33.2152 112.093 33.5848C106.705 35.1384 102.888 28.7939 106.31 24.4399C108.666 21.4431 110.894 20.1686 114.652 19.5546L115.152 19.4751C119.491 18.9083 127.757 20.2376 130.868 16.5675C133.686 13.2484 131.821 7.10835 126.348 7.83778C123.329 9.34908 124.713 11.4381 123.047 13.9604C121.88 13.8572 122.429 14.0476 121.428 13.1745C119.652 7.12125 132.798 1.94386 134.36 12.6331C134.666 14.7556 134.117 16.9137 132.834 18.6323C130.202 22.1491 126.255 22.8378 122.223 23.3748C124.717 26.6342 126.74 30.1462 125.149 34.4368C121.287 44.1506 108.258 47.1631 99.1377 44.0283C86.705 39.7554 86.1517 25.1649 96.7306 18.452C99.1304 16.929 101.047 16.0212 103.668 14.8404C95.3757 8.70438 98.5093 2.87379 106.825 -0.148413Z" fill="white"/>
<path d="M155.747 70.1333C160.07 69.9114 165.943 69.4391 169.979 70.6724C180.177 73.7884 180.786 87.8971 171.423 92.7319C167.33 93.8886 157.05 93.5651 152.364 93.561C153.498 92.991 156.897 92.7726 157.038 91.4175C157.405 87.8801 158.083 75.0656 156.917 72.3354C155.839 71.2446 155.222 71.1626 153.785 70.812L153.951 70.4917L155.747 70.1333ZM169.203 72.1519C166.451 70.4623 163.968 70.7223 160.845 70.7808C160.816 75.4577 160.477 88.4298 161.256 92.5034C165.457 92.7072 168.13 93.1928 171.625 90.4155C175.274 84.7403 175.596 76.0782 169.203 72.1519Z" fill="white"/>
<path d="M47.4916 16.6873C52.1278 18.1885 49.6509 23.5535 48.7141 27.1506C51.2274 23.1315 55.0786 16.0042 60.7396 17.0403C71.3 18.9732 56.1635 39.1329 59.3257 43.1697C61.1751 43.1552 63.311 39.6884 65.9933 38.3647C66.7093 43.8878 49.5637 51.1825 54.9305 37.0289C55.5206 35.4728 56.4008 32.8859 57.0131 31.21C58.0697 28.3367 61.6513 20.7822 59.1357 18.6936C51.4627 18.5737 45.2835 39.0796 43.6012 44.7859C42.0357 44.8646 40.1419 44.823 38.5469 44.8299C39.817 41.1037 45.6681 22.9592 45.8517 20.313C43.6408 18.4358 41.4298 23.9932 39.568 24.0493C39.616 21.015 44.783 17.5966 47.4916 16.6873Z" fill="white"/>
<path d="M183.68 27.7922C185.169 24.9169 186.961 21.9548 188.992 19.7101C190.977 17.5145 196.842 15.3819 198.561 18.2843C202.181 24.4001 194.416 35.1023 193.758 41.7635C193.677 42.5878 194.275 43.0013 194.739 43.5318L196.402 44.3064C196.026 44.465 195.647 44.6134 195.264 44.7514C193.536 45.3776 192.249 45.6511 190.517 44.8543C185.315 40.0884 198.412 22.564 194.109 18.8394C186.465 18.6954 180.419 38.9959 178.595 44.8107L173.679 44.7873C174.732 41.4779 181.767 21.4646 180.326 19.9513C178.619 20.5048 176.439 22.6786 174.708 23.9369C175.782 21.2702 179.475 16.7794 182.663 16.729C186.747 18.7458 184.584 24.3517 183.68 27.7922Z" fill="white"/>
<path d="M83.1304 16.791C84.4937 16.908 86.8376 17.4841 87.3306 18.8398C90.2503 26.8704 77.5817 31.8337 72.895 33.957C72.3053 36.2684 71.0772 40.8593 73.5757 42.5957C78.4917 46.0111 82.4013 36.2147 84.2056 36.0098L84.4692 36.6826C73.8104 55.9745 61.4958 39.8082 70.9595 26.0762C74.2327 21.3268 77.2777 18.1684 83.1304 16.791ZM81.5034 18.5488C79.1568 20.4236 72.5449 29.0283 74.2905 31.6406L75.5444 31.1221C78.6193 29.0172 85.8354 23.7954 84.0483 19.5166C82.9885 18.669 82.903 18.6981 81.5034 18.5488Z" fill="white"/>
<path d="M218.943 -0.118652L219.25 -0.0730728C220.227 3.91941 204.341 41.6386 208.381 43.7143C210.637 43.1931 213.523 39.0953 215.444 37.143L215.533 37.6486L215.198 37.3802L215.416 38.0698C214.964 39.6747 213.825 41.0722 212.861 42.4774C209.91 45.2268 203.921 47.255 203.053 41.8629C202.028 35.4929 214.092 8.08941 213.26 3.69671C212.602 2.58118 211.949 2.49889 210.685 2.02282L210.201 1.84169L210.189 1.26636C213.268 0.859693 215.888 0.488531 218.943 -0.118652Z" fill="white"/>
<path d="M65.9795 70.1741C70.8583 69.7053 78.9962 68.9851 83.0508 72.4631C87.5092 76.2869 84.1554 80.6863 79.6602 82.094C77.7301 82.6984 75.146 82.5734 73.0723 82.5959L73.0801 90.2395L73.3301 91.717C74.2943 92.8316 76.0645 92.8967 77.5674 93.4905L77.8711 93.6116C75.4418 93.5365 68.6775 93.9281 67.3799 92.9299L66.8711 93.1614C67.7735 92.6745 69.2424 91.9524 69.3057 90.7668C69.631 84.6217 70.0003 77.9864 69.1084 71.9045C68.9571 70.8726 66.997 71.4907 65.9795 70.1741ZM73.0645 70.7708C72.9825 76.2576 71.083 85.2487 79.6104 80.2932C83.062 73.9816 79.7294 70.682 73.0645 70.7708Z" fill="white"/>
<path d="M200.717 70.1167C200.943 70.0797 201.488 70.151 201.742 70.1724C202.473 71.9197 202.134 78.5416 202.081 80.8062C203.679 79.8009 205.144 78.942 207.081 78.9165C208.921 78.8891 210.698 79.5951 212.018 80.8784C215.888 84.7123 214.302 89.9262 210.682 93.1997C206.287 94.9405 206.428 93.9938 202.202 92.4575C200.681 92.886 200.717 93.3855 199.562 94.8706C199.603 87.8354 199.744 80.0597 199.474 73.0015C199.429 71.9288 198.452 71.5958 197.5 70.9585C198.444 70.2234 199.377 70.3164 200.717 70.1167ZM205.75 79.6313C204.705 80.2453 202.957 81.1983 202.049 81.9067C201.984 86.8292 200.689 93.3057 207.514 93.2964C212.777 90.2044 213.132 80.1001 205.75 79.6313Z" fill="white"/>
<path d="M227.948 44.1023C224.296 48.6479 210 65.6797 201.516 58.8914C200.939 58.4298 201.12 58.498 201.08 57.7678C203.804 54.2437 207.259 57.2796 209.717 56.975C222.475 55.3955 224.183 40.2309 224.243 29.9213C224.263 26.8616 224.384 22.608 222.096 20.2991C220.744 19.888 221.39 19.8356 220.102 20.5166C218.823 22.3095 218.899 23.2943 218.342 25.4132L217.729 25.6911L217.156 24.7753C216.623 19.8436 222.596 14.0756 226.293 18.4421C231.322 24.3796 227.557 36.1496 227.399 42.9235L227.948 44.1023Z" fill="white"/>
<path d="M113.194 78.9544L113.981 79.2348L114.26 80.663C115.511 81.5146 117.275 79.1016 118.748 78.6796C120.806 78.0914 123.458 80.6355 124.653 81.0321C126.376 79.9561 127.623 78.8463 129.742 78.7014C134.719 78.3617 134.125 83.8151 134.242 87.3073C134.364 90.9427 133.375 90.9657 136.361 93.2851C135.017 93.741 132.2 93.5554 130.642 93.5296L130.154 92.9188L130.118 92.9132L131.292 92.0462C134.759 77.3309 123.938 76.4684 124.358 87.035C124.273 90.7672 123.498 91.297 126.546 93.2577C125.052 93.7915 121.194 93.7051 119.668 93.2976C122.489 91.4244 121.521 90.6987 121.775 87.6587C122.336 80.9523 120.371 76.8077 114.337 82.9436C114.308 84.9492 113.969 90.4045 114.821 92.2693C114.942 92.5262 116.104 92.452 116.516 93.3162C114.76 93.6147 111.285 93.827 109.625 93.2504L111.435 92.1369C112.298 90.8895 111.782 84.4481 111.887 82.6314C111.971 81.1624 110.841 80.832 109.719 80.0203C110.539 79.3151 112.068 79.1731 113.194 78.9544Z" fill="white"/>
<path d="M220.489 78.8853C232.46 78.4201 225.825 86.4687 228.489 92.0181L229.114 92.1948L230.741 91.1499L231.1 91.8472C229.942 95.0254 227.346 94.2985 225.437 92.2212C223.867 91.967 222.268 93.8845 218.483 94.0083C210.307 88.0408 225.929 85.8813 225.921 81.5347C225.284 80.8079 225.025 80.5546 224.158 80.2017C218.609 77.9378 221.034 81.7884 217.559 83.144L216.994 82.8442C216.239 80.5726 218.959 79.5328 220.489 78.8853ZM224.453 85.2192C221.276 86.8112 216.914 88.8869 220.433 92.9067C223.892 91.9815 227.447 89.2183 225.086 85.4019L224.453 85.2192Z" fill="white"/>
<path d="M27.819 70.0952C28.5835 69.9524 28.2198 69.996 29.0815 70.2828C29.6296 72.273 29.3895 78.9032 29.3653 81.3747C30.9413 80.0615 32.5158 78.7838 34.7352 78.7552C40.7893 78.6765 39.2738 87.0613 39.2516 91.3818C39.9062 92.5969 40.0943 92.4017 41.4884 93.1089C40.374 93.8117 36.1458 93.5055 34.6533 93.4397C35.2607 92.8084 35.829 92.3097 36.4788 91.7307C37.0023 89.4916 36.769 85.1599 36.7299 82.7061C35.5243 77.8394 31.6957 80.2701 29.3519 82.6157C29.2845 85.2385 29.044 88.9042 29.5832 91.4467C29.8169 92.5489 30.3448 92.5465 31.3982 93.1109L31.1609 93.445C29.6756 93.5898 25.5875 93.8275 24.4336 93.1727C25.2642 92.8205 26.6155 92.4868 26.6453 91.7324C26.8786 86.4295 26.9969 81.0346 26.8282 75.7209C26.7777 74.1357 25.173 70.8816 25.2283 70.487L27.819 70.0952Z" fill="white"/>
<path d="M0.122112 70.2885C3.21455 70.0166 20.0538 69.8129 22.8496 70.3136C22.0299 70.3906 19.833 70.4185 19.4456 70.8622C17.7641 71.0987 15.0265 70.9792 13.2365 70.9554C13.2337 77.4259 13.0327 86.0362 13.4932 92.317L18.6739 93.3966C14.2011 93.6258 9.18066 93.5039 4.65946 93.4854C6.25653 92.7689 7.37209 93.2106 9.14271 91.9773C10.3156 89.3517 9.80865 74.822 9.77677 70.9304C7.57953 70.9833 5.5264 71.0781 3.332 70.8538C1.32163 72.5664 0.929325 74.7172 0.0874023 77.233L0.122112 70.2885Z" fill="white"/>
<path d="M0.0874023 77.2328L0.122112 70.2883L3.3905 70.6212L3.332 70.8536C1.32163 72.5662 0.929326 74.7169 0.0874023 77.2328Z" fill="white"/>
<path d="M94.0889 78.9277C99.851 82.0798 95.3861 90.6673 98.2686 92.5605L100.044 91.1689C100.153 93.237 98.9881 93.9944 97.0439 93.998C95.6309 93.2708 95.3086 92.9781 94.0967 91.9316C90.3113 93.8948 88.4503 95.3185 85.0107 91.7783C83.4696 86.1468 98.8081 86.2265 93.1133 79.6113L94.0889 78.9277ZM93.7207 85.2207C90.1815 86.9515 86.5736 88.4023 89.3848 92.8535C93.1349 92.0643 96.5246 89.4565 94.2773 85.4131L93.7207 85.2207Z" fill="white"/>
<path d="M184.968 79.3205C184.988 83.3868 183.128 92.9646 188.818 92.9859C194.207 90.5294 192.624 84.1114 190.768 79.9136L191.184 79.3592C192.701 79.1934 192.951 79.143 194.4 79.5912C195.26 80.8455 194.885 81.9614 194.84 83.7846C194.832 86.108 194.699 88.8845 194.885 91.1745C194.973 92.315 195.74 92.4385 196.842 93.1025L196.39 93.4842C195.28 93.7255 193.831 94.2011 192.826 93.8489C192.588 92.9597 192.463 92.4901 192.112 91.6421C191.111 92.3348 190.074 92.9702 189 93.5447C187.551 94.3036 186.546 94.6171 184.976 94.1132C180.976 91.3512 183.454 84.1251 181.953 80.7293C181.077 80.3331 180.69 80.2714 180.226 79.4339L184.968 79.3205Z" fill="white"/>
<path d="M45.5132 79.8994L46.3755 80.7412C45.8206 82.3909 45.6012 82.1188 46.1069 83.3311C47.6814 84.1696 50.416 83.6612 52.396 83.543L52.521 84.1143C50.396 84.1824 47.1697 83.6714 45.521 84.7422C44.6173 86.7981 45.5689 90.2039 46.9868 91.8076C49.7979 94.9872 52.9811 92.1819 55.1089 90.374L55.2153 90.6084C52.7566 94.7966 48.2559 95.5524 44.7349 92.1328C43.2339 90.672 42.3725 88.6768 42.3374 86.583C42.2943 83.5871 43.5372 81.8403 45.5132 79.8994Z" fill="white"/>
<path d="M50.8574 78.9126C52.919 79.7893 54.2352 80.6777 55.1252 82.8849L54.9742 83.7362C53.8352 84.3898 54.0653 84.165 52.5207 84.1146L52.3956 83.5433C52.1724 81.7117 52.1437 81.4313 50.9995 79.8918L50.8574 78.9126Z" fill="white"/>
<path d="M45.5132 79.8993C47.6563 78.8266 48.585 78.7237 50.8577 78.9125L50.9998 79.8917C48.7796 79.581 48.2698 79.4745 46.3757 80.7409L45.5132 79.8993Z" fill="white"/>
<path d="M104.555 70.1349L105.309 70.0461C106.319 71.3239 105.783 88.331 105.887 91.4101C106.337 92.399 106.719 92.4667 107.746 93.0295L108.096 93.2167C107.298 93.6654 102.812 93.5201 101.589 93.5246C101.472 93.5383 101.085 93.3362 100.945 93.2748C105.68 90.4302 102.493 78.1174 103.22 72.8763C103.331 72.0746 101.658 71.3311 101.017 70.9729C101.864 70.3237 103.337 70.3172 104.555 70.1349Z" fill="white"/>
<path d="M227.399 42.9232C230.333 38.8851 236.242 31.0527 236.169 25.5795C236.149 23.7495 234.184 20.4582 234.329 18.0823C235.293 16.9878 234.769 17.2617 236.189 17.1133C244.661 19.9164 231.705 39.7957 227.948 44.1021L227.399 42.9232Z" fill="white"/>
<path d="M236.803 78.9524L236.932 78.9673C238.252 80.1405 236.799 88.8416 237.606 91.2695C238.143 92.8829 239.257 92.3181 239.762 93.3247C238.74 93.7063 234.244 93.5143 232.876 93.4978L232.622 93.2593C233.925 92.5981 234.232 92.567 234.943 91.3736C235.108 88.7153 235.52 84.4586 234.636 81.9274C234.22 80.7441 233.433 80.6541 232.404 80.2349C233.138 79.4862 235.621 79.1884 236.803 78.9524Z" fill="white"/>
<path d="M139.029 90.4181C146.024 90.1978 144.102 97.3033 139.021 100.307L138.67 99.7029C140.583 98.136 142.488 97.0322 142.06 94.4243C141.043 93.8232 140.575 93.6864 139.449 93.2874C138.698 92.0524 138.961 92.0286 139.029 90.4181Z" fill="white"/>
<path d="M93.1135 79.611C89.3991 79.6655 89.8802 79.609 87.5845 82.5658C86.3729 82.6671 86.8915 82.816 85.9438 82.2592C86.7002 78.859 91.3837 78.7448 94.0894 78.928L93.1135 79.611Z" fill="white"/>
<path d="M234.777 70.2095C235.556 69.6205 236.658 69.7459 237.279 70.4943C237.905 71.2427 237.828 72.349 237.106 73.005C236.613 73.456 235.907 73.5992 235.277 73.3769C234.644 73.1551 234.184 72.6035 234.083 71.9419C233.978 71.2802 234.244 70.615 234.777 70.2095Z" fill="white"/>
<path d="M194.739 43.5316C197.46 42.3786 198.234 39.9781 200.882 38.5527C201.128 40.204 197.778 43.3755 196.402 44.3062L194.739 43.5316Z" fill="white"/>
<path d="M22.8498 70.3135C22.964 72.5925 23.0391 74.8728 23.075 77.1543C22.1423 74.642 21.6616 72.3016 19.4458 70.8622C19.8333 70.4184 22.0301 70.3905 22.8498 70.3135Z" fill="white"/>
</g>
<defs>
<clipPath id="clip0_45_76">
<rect width="240" height="100" fill="white"/>
</clipPath>
</defs>
</svg>
