<svg width="294" height="100" viewBox="0 0 294 100" fill="none" xmlns="http://www.w3.org/2000/svg">
<g clip-path="url(#clip0_45_256)">
<path d="M78.5698 0.330322C92.0868 -1.0513 104.158 8.81132 105.517 22.3459C106.876 35.8808 97.006 47.9502 83.4849 49.2893C69.9939 50.6265 57.9705 40.7711 56.6147 27.2668C55.2592 13.7623 65.0831 1.70897 78.5698 0.330322ZM94.9731 17.5764C93.7911 8.18951 89.8678 0.485913 79.5103 0.920166C75.8687 1.60273 73.2317 2.96386 71.0435 6.18579C66.0418 13.551 66.206 26.2385 67.6187 34.7952C68.3273 39.0872 70.9398 44.7001 74.7202 47.0012C77.5437 48.7209 79.3585 48.8635 82.5288 48.6985C95.7084 46.8764 96.2536 27.7465 94.9731 17.5764Z" fill="white"/>
<path d="M145.852 53.3108C149.578 53.0913 155.194 53.2349 159.052 53.2366C164.848 53.3795 170.623 52.7891 176.324 53.929C195.803 57.8218 199.251 85.7554 182.664 95.8049C178.491 98.0183 173.007 99.229 168.369 98.9143C165.313 98.7068 146.796 99.299 145.944 98.593L145.916 98.1711C146.648 97.5417 148.487 97.8243 149.534 97.7444C151.981 97.5572 153.016 96.8082 153.179 94.1292C153.52 88.4808 153.517 82.677 153.502 76.9963C153.483 70.3358 153.67 63.5391 153.004 56.9075C152.606 52.9809 147.543 55.1707 145.931 53.9475L145.852 53.3108ZM176.545 56.845C172.738 53.8184 167.076 54.3864 162.566 54.429C162.65 68.7351 162.374 83.3901 162.62 97.635C169.038 97.8749 174.104 98.3666 178.713 93.2034C180.716 90.5187 182.033 87.7267 182.524 84.3616C183.797 75.6033 184.18 62.9119 176.545 56.845Z" fill="white"/>
<path d="M263.484 -0.108398C267.851 -0.617516 273.504 0.358722 275.795 4.59277C276.645 6.15465 276.812 7.9987 276.256 9.6875C274.778 14.3144 267.847 17.2473 263.721 19.2627C265.942 24.2518 273.076 34.045 276.7 38.3086C279 35.8909 282.791 29.2242 282.922 25.7744C283.105 20.93 277.691 22.4243 276.446 21.0684L276.5 20.7148C276.993 20.2938 292.344 20.2006 293.061 20.8369C292.451 21.982 288.334 21.9122 286.662 23.7744C284.102 26.6268 283.365 30.5611 281.522 33.875C280.314 36.0489 279.083 37.6321 277.662 39.5322C279.962 41.7848 281.83 43.5556 284.963 44.3613C293.205 43.9261 290.398 36.9488 292.136 34.6943C292.625 34.5482 292.62 34.5123 293.116 34.5791C293.223 34.8351 293.264 34.8404 293.259 35.0781C293.135 42.2263 289.958 49.3302 281.955 49.793C277.787 50.0329 274.515 48.3481 271.424 45.6328C264.832 49.4454 259.369 50.8237 251.612 49.1445C244.52 47.6745 240.636 41.148 242.39 34.1729C243.833 28.4379 249.841 24.9843 254.539 22.2754C253.226 20.061 252.052 17.1489 251.65 14.5908C250.423 6.76284 255.962 0.959675 263.484 -0.108398ZM255.175 24.0127C253.544 25.8644 252.402 27.3936 251.768 29.8164C249.212 39.5742 255.395 48.649 265.987 46.7266C267.643 46.1839 268.828 45.5281 270.342 44.6689C266.214 40.9002 261.626 33.5478 258.295 28.9336C257.728 28.1452 255.6 24.4132 255.175 24.0127ZM270.055 11.3955C271.047 6.56282 270.882 -0.0161865 264.168 0.916992C258.676 2.58461 259.488 8.45848 260.83 12.7832C261.391 14.6187 262.1 16.4048 262.953 18.124L265.125 16.9824C267.312 15.7158 269.52 13.996 270.055 11.3955Z" fill="white"/>
<path d="M115.328 53.2615C121.347 53.2462 128.07 52.5605 133.516 55.5242C138.299 58.1272 139.965 64.8051 137.173 69.4275C134.833 73.2995 130.126 74.4445 126.06 75.5095C140.931 78.5481 134.948 94.1621 139.326 96.9783C139.729 97.2369 140.066 97.2933 140.533 97.198C144.566 96.366 143.542 88.6339 144.522 87.0652C145.059 87.0056 144.828 86.9328 145.253 87.1726C145.424 89.7467 144.986 93.4554 143.77 95.7742C141.475 100.15 135.023 100.245 131.146 98.0076C123.674 92.4291 128.445 82.1162 124.146 77.6433C121.702 75.0999 116.086 75.7939 112.791 75.782C112.76 79.6218 112.79 83.4617 112.881 87.3015C112.922 90.0406 112.843 92.7291 113.32 95.4392C113.951 99.0182 118.636 97.0486 120.672 98.282C119.062 99.5154 106.711 98.6866 103.726 98.9265C102.541 99.0217 98.3184 98.9351 97.1631 98.7957C96.9104 98.3483 96.9947 98.5947 97.0742 97.9841C97.7344 97.3717 102.882 98.9927 103.323 95.0173C103.918 89.6549 103.699 84.1525 103.701 78.7458L103.698 67.3855C103.696 64.1767 104.008 57.4464 102.425 54.8367C100.534 54.3468 98.7949 54.616 97.0674 54.031C96.8583 53.9613 96.8978 53.6226 96.8535 53.2859C103.012 53.24 109.17 53.2309 115.328 53.2615ZM126.218 56.281C123.481 53.6255 116.501 54.395 112.779 54.407L112.763 74.5925C114.119 74.7286 115.798 74.715 117.191 74.7048C120.644 74.6776 123.613 74.9564 126.509 72.8162C129.642 69.4883 129.584 59.5475 126.218 56.281Z" fill="white"/>
<path d="M40.0624 23.7523C40.0729 19.4167 40.4796 6.17121 39.2675 2.96425C38.0269 1.63655 34.1857 2.02547 32.0073 1.24882L32.0191 1.01387C34.0568 0.616786 56.4837 0.371459 57.4287 1.00894L57.4185 1.22976C56.537 1.93308 52.4637 1.86112 50.3142 2.41745C49.9579 3.02448 49.6929 3.68101 49.5277 4.36545C49.0083 6.5831 49.1736 18.7395 49.1729 21.8038L49.1745 34.8901C49.1753 37.776 48.8456 43.911 50.0032 46.6419C50.7961 48.5116 56.3545 47.1574 57.4608 48.4589L57.2574 48.7226C56.5285 49.1156 55.937 48.9846 55.0873 48.9404C48.3363 48.9625 41.5794 48.8468 34.8366 48.9948C33.9444 49.0135 32.7845 49.0748 32.1601 48.4572L32.2502 48.1339C33.3734 47.7137 36.7256 47.8515 38.4655 47.4075C39.0657 46.6929 39.5387 46.0754 39.7035 45.134C40.1532 42.5635 40.0723 39.4085 40.0789 36.7772L40.0816 24.9984C32.8529 25.1724 24.8647 25.0322 17.6088 24.997C17.4625 30.291 17.6351 35.8959 17.6217 41.2083C17.6185 42.5048 17.7052 45.1022 18.1383 46.2727C19.0351 48.6954 24.214 47.1438 25.4742 48.35L25.4555 48.6971L25.1683 48.9148L8.64918 48.9251C7.21494 48.9234 0.831518 49.1785 0.0372447 48.6596L0.0143044 48.3381C0.739754 47.5691 4.81597 47.9128 6.1802 47.4517C6.89784 47.2101 7.52524 46.8052 7.84607 46.0941C8.87146 43.8235 8.57781 11.2406 8.29844 6.76258C8.22605 5.60195 8.08296 4.2683 7.64997 3.18083C6.78432 1.00724 2.07731 2.31638 0.240828 1.4887C-0.0591059 1.35344 0.0465927 1.44361 -0.0720215 1.10233C0.293338 0.776191 0.456815 0.824518 0.956422 0.778072C8.20276 0.581231 15.5229 0.776197 22.776 0.72771C23.5249 0.722776 25.0767 0.623249 25.5243 1.17788C25.0237 2.31571 19.5795 1.43341 18.7074 2.57516C17.2754 4.45051 17.5908 9.73137 17.5869 11.9443C17.5784 15.8663 17.5932 19.7883 17.6312 23.7102C20.0553 23.8325 23.0676 23.7481 25.5622 23.7489L40.0624 23.7523Z" fill="white"/>
<path d="M194.011 0.779523C207.753 0.465462 222.206 0.734614 236.025 0.714198L236.041 10.9328C236.042 12.326 236.134 15.3812 235.906 16.6269C235.414 16.9176 235.691 16.8229 235.011 16.7716C234.781 16.4472 234.8 16.4931 234.759 16.0857C234.266 11.1563 231.994 6.39452 227.678 3.73912C222.755 0.710109 216.903 2.40121 211.584 1.72732L211.577 22.7893C219.263 22.9423 223.846 23.0556 225.455 13.9216C225.551 13.3813 225.938 11.827 226.331 11.4644C226.942 12.3488 226.747 16.7034 226.74 18.0902C226.715 23.6451 226.805 29.2128 226.669 34.764C226.66 35.0903 226.602 35.2701 226.393 35.5187C224.135 34.7953 228.067 22.5462 211.76 24.1761L211.572 24.1968C211.47 32.0145 211.563 40.0518 211.565 47.8855C216.763 47.7477 222.691 48.5728 227.306 46.1655C231.578 44.0305 234.185 39.7294 235.359 35.2225C235.674 34.0127 235.779 30.5866 236.875 30.1293L237.126 30.3545C237.247 36.4871 237.169 42.811 237.193 48.9658C232.749 48.9386 194.663 49.1291 193.958 48.6834L194.009 48.287C196.906 46.39 202.159 50.6076 202.29 42.82C202.494 30.786 202.507 18.7036 202.292 6.66792C202.169 -0.184943 198.444 2.74743 194.274 1.61181C193.887 1.20758 194.014 1.45681 194.011 0.779523Z" fill="white"/>
<path d="M194.252 53.3432C198.8 53.054 205.266 53.2429 209.981 53.2531L237.169 53.2309C237.223 58.0644 237.094 62.9165 237.198 67.7516C237.206 68.1769 237.11 68.5665 236.87 68.9187C236.126 68.9119 235.976 67.9336 235.872 67.3127C235.249 63.5953 234.193 60.7252 231.48 58.0388C227.736 54.3334 223.469 54.2772 218.502 54.2755L211.572 54.3028C211.506 60.8222 211.551 67.4658 211.573 73.9852C218.354 73.958 223.933 74.4122 225.318 66.1847C225.467 65.2932 225.591 63.5051 226.521 63.3163C226.827 63.9203 226.886 84.0382 226.659 85.7242L226.305 85.9199C226.013 85.8331 225.797 85.7906 225.748 85.3839C224.694 76.6324 221.81 75.2016 213.738 75.1795L211.563 75.2288L211.575 97.7848C215.319 97.7984 220.616 98.0349 224.188 97.368C229.731 96.3319 233.935 91.7332 235.273 86.3418C235.575 85.1219 235.922 81.983 236.51 81.1069L236.831 81.0711C237.395 81.7738 237.164 86.4966 237.166 87.6756L237.189 98.9519C235.385 98.8821 233.507 98.9178 231.695 98.9161C219.763 98.9076 207.83 98.9025 195.899 98.9297C195.227 98.9297 194.551 98.9297 194.065 98.4194L194.077 98.0178C195.041 97.305 200.905 98.7392 201.763 96.0477C202.106 95.0082 202.295 93.7357 202.309 92.6298C202.462 81.3093 202.55 69.8919 202.254 58.5782C202.093 52.3735 197.693 55.2929 194.186 54.102L194.058 53.7822L194.252 53.3432Z" fill="white"/>
<path d="M284.441 84.605C284.919 77.3353 284.543 68.8747 284.366 61.5778C284.287 58.2824 282.196 55.0499 278.878 54.4851C278.308 54.3881 277.69 54.3592 277.12 54.1635C277.012 53.6701 276.99 53.9015 277.168 53.4473C277.725 53.1308 291.142 53.1751 292.596 53.352L292.873 53.386C293.302 53.4388 293.402 53.5102 293.816 53.6786L293.757 53.944C291.329 55.2217 287.68 54.9342 286.803 59.0582C285.66 64.4224 286.129 70.724 286.132 76.2567L286.023 91.2061C286.023 92.6828 286.125 98.0453 285.903 99.1325L285.497 99.2788C284.368 99.0134 283.586 97.7493 282.83 96.8119C273.037 85.0405 262.526 72.7418 253.024 60.8411C252.966 67.1224 252.949 73.4036 252.974 79.6831C252.974 81.7655 252.973 83.7748 252.981 85.9388C252.997 90.4507 252.886 96.9123 258.747 97.6727C259.276 97.7408 259.556 97.7867 260.061 97.9381C260.448 98.3669 260.362 98.1236 260.353 98.6799L260.01 98.8994C258.027 98.8943 244.564 99.1733 243.868 98.5489C244.714 97.2236 250.205 98.0283 251.046 92.0686C251.683 87.5534 251.496 83.5502 251.494 79.0213L251.484 58.8795C251.306 58.6652 251.124 58.4525 250.94 58.2433C248.697 55.6794 247.142 54.5497 243.688 54.3166C243.307 53.9491 243.434 53.9866 243.394 53.2822L258.905 53.2516C264.528 60.6132 270.935 67.6123 276.628 74.9416C279.158 78.1996 281.991 81.2755 284.441 84.605Z" fill="white"/>
<path d="M169.54 -0.0993105C173.785 -0.720968 177.886 0.642801 181.58 2.47562C182.899 3.12994 185.167 4.30725 186.578 4.22678C188.109 4.13916 188.627 1.77486 189.382 0.722258L189.686 0.688053C190.021 1.30461 189.937 17.2331 189.716 17.767L189.383 17.8983C189.127 17.6896 188.931 17.4944 188.853 17.1509C187.055 9.23288 182.647 2.44636 174.116 1.07119C169.044 0.253541 163.334 1.7199 162.731 7.7005C161.789 17.0539 175.218 18.2797 181.514 20.8802C189.575 23.8692 194.384 27.438 193.516 36.6741C192.619 46.2285 184.083 50.8594 174.998 49.7774C171.69 49.4082 169.346 48.4215 166.389 46.9532C164.592 46.1791 162.76 45.0187 160.751 45.2684C158.907 45.4976 158.369 48.6869 157.516 48.9114C157.016 48.1578 156.956 29.5948 157.402 28.1876L157.684 28.1606C158.324 28.7674 158.62 30.5981 158.826 31.5423C161.293 42.8706 171.102 52.0265 183.069 47.7767C186.877 46.4258 187.689 42.1276 187.327 38.5309C186.777 33.0549 181.225 31.0053 176.682 29.6843C169.103 27.0091 158.02 25.2997 157.053 15.5452C156.2 6.94444 161.04 0.828752 169.54 -0.0993105Z" fill="white"/>
<path d="M25.1513 51.9738C27.8122 51.9687 29.8724 52.0963 32.3982 53.1426C34.332 53.9439 36.9981 55.994 38.9736 56.3734C40.5144 56.6677 41.4489 53.0711 42.4155 52.297L42.7558 52.3464C43.0189 52.9861 43.0485 56.8769 42.9625 57.7191C42.8009 59.3013 43.3205 68.6126 42.6921 69.2318L42.2426 69.1995C41.9605 69.0124 41.6076 68.7078 41.5306 68.354C39.9686 61.1727 34.8755 53.4947 26.8417 52.998C23.5103 52.7683 20.2264 53.8878 17.7291 56.108C9.05547 63.8302 9.25617 86.1445 16.7727 94.8348C20.4543 99.2752 27.8229 99.8264 32.0173 95.859C35.5394 92.5278 35.8953 88.0636 35.7216 83.5126C35.646 81.5306 35.8504 80.3107 34.3453 78.8136C33.2815 78.2386 30.3418 78.1382 29.0178 78.0293L28.916 77.5529L29.1574 77.2552C30.3163 76.8656 34.1587 77.1548 35.5992 77.0783C36.348 77.0391 39.0907 76.983 39.8952 77.0783C41.6904 77.2909 51.4014 76.5509 51.7566 77.6227C51.6754 77.7537 51.5941 77.8847 51.5129 78.0157C49.5887 78.2216 47.8941 78.242 46.0998 78.9157L45.8896 78.9956L45.8583 79.0739C44.2436 83.0175 45.063 89.8653 44.837 94.3006C44.767 95.6753 44.9772 97.0669 44.6826 98.4722L44.4288 98.6287C43.7761 98.2783 43.0882 96.5514 41.9544 95.6378C38.0281 92.3135 35.0981 96.5242 31.6827 98.1064C24.5265 101.419 15.4661 99.0132 9.70955 93.9995C4.95547 89.8057 2.04738 83.9039 1.61812 77.5767C0.959457 67.5526 6.48827 57.5864 15.914 53.7925C19.153 52.4893 21.7052 52.1677 25.1513 51.9738Z" fill="white"/>
<path d="M72.7373 52.1611C73.5659 53.0528 85.8019 84.6989 87.4277 88.4434C88.3598 90.5887 89.8674 94.5269 92.1768 96.5293C92.7443 97.0227 94.5562 97.5401 95.2871 97.9297C95.8271 98.2187 95.8686 98.1679 96.0225 98.6387C95.4039 99.0026 73.6774 99.032 73.2188 98.8213C73.1272 98.2005 73.0499 98.4416 73.2539 97.959C76.5836 96.9637 77.3701 98.627 79.0215 94.748C78.6707 91.4238 76.4249 86.7131 75.2197 83.4092L72.2715 83.4756L61.7949 83.4971C60.6759 86.1885 58.5051 90.9766 58.458 93.748C58.3787 98.4241 63.0662 97.0095 64.3545 98.3018L64.3418 98.4727C63.6458 99.0815 49.2536 99.1886 48.1006 98.5713L48.2539 98.2559C49.1836 97.7065 50.4644 97.4874 51.5127 97.1523C54.9228 96.0584 56.508 92.3374 57.7676 89.3721C58.989 86.6399 59.969 83.8021 61.0908 81.0342C64.2446 73.2541 67.3469 65.4585 70.3809 57.6309C71.0614 55.8751 71.8752 53.8301 72.7373 52.1611ZM68.2793 66.4297C66.3781 71.7734 64.1889 76.8941 62.2705 82.2412L69.5527 82.2568C70.8919 82.2619 73.3937 82.1954 74.6406 82.3145C73.9895 80.4916 68.9518 66.8468 68.2793 66.4297Z" fill="white"/>
<path d="M103.655 0.73843C106.22 0.702362 128.756 0.488337 129.373 1.05657L129.302 1.40704C127.2 3.2453 121.174 -1.11991 121.136 6.7813C121.102 13.0578 121.016 19.2643 121.084 25.5517C121.236 33.0502 119.375 42.8905 127.382 47.1336C130.596 48.8366 135.664 48.8689 139.065 47.7852C142.004 46.8648 144.448 44.7987 145.848 42.0528C148.111 37.5865 147.535 32.2055 147.615 27.3576C147.636 26.0872 147.615 24.7719 147.605 23.4989C147.568 18.8725 147.763 14.226 147.464 9.60751C147.396 8.54743 147.184 7.47901 146.857 6.46792C145.082 1.11476 141.721 2.70429 139.335 1.53634C139.175 1.07342 139.159 1.29714 139.293 0.854969C139.874 0.576805 140.835 0.685522 141.52 0.702875C146.587 0.797638 151.913 0.531378 156.982 0.862622C157.332 0.88559 157.324 0.914687 157.5 1.17346C157.189 1.88018 155.417 1.77674 154.613 2.01186C148.49 3.80265 149.056 10.7438 149.06 16.1706L149.078 28.164C149.084 34.8154 149.614 42.8602 143.372 47.0213C138.391 50.3423 131.563 50.2249 125.931 49.3436C118.973 48.2547 113.299 43.9404 112.274 36.7087C111.735 33.2278 111.836 30.0142 111.833 26.4659L111.844 10.9706C111.865 8.12721 112.293 4.88945 110.688 2.53927L110.553 2.34684C107.782 1.43477 106.382 2.30295 103.863 1.64574C103.656 1.59181 103.683 1.04484 103.655 0.73843Z" fill="white"/>
</g>
<defs>
<clipPath id="clip0_45_256">
<rect width="294" height="100" fill="white"/>
</clipPath>
</defs>
</svg>
