<svg width="479" height="100" viewBox="0 0 479 100" fill="none" xmlns="http://www.w3.org/2000/svg">
<g clip-path="url(#clip0_45_153)">
<path d="M30.4974 38.6952C33.3275 34.2722 46.0028 4.24682 48.287 3.41006C49.9228 2.81104 57.6805 2.84824 59.3124 3.59968L59.3106 3.97032C56.8695 5.67478 53.3536 5.80509 52.994 9.05535C52.4052 15.6765 52.8793 22.0748 53.1774 28.805C53.4033 33.9059 52.7473 40.7334 54.9993 45.4012C56.289 48.0725 60.9201 48.1921 61.8614 49.5056L61.7738 49.9686C59.6969 50.8634 52.9675 49.8672 50.313 50.0363C48.5448 50.1481 42.1286 50.5226 40.874 49.9478C41.4334 48.6317 45.4533 47.6823 45.5152 45.2894C45.6825 38.8081 45.1153 32.2605 44.8918 25.7626L44.4848 17.3365C42.0084 20.9507 40.5185 24.5136 38.6681 28.4713L32.2932 42.1484C30.9837 44.9512 29.4265 48.5198 27.7181 51.035C25.6254 48.5771 23.6831 44.1397 22.3208 41.1225L15.7289 26.3608C14.4821 23.5707 12.8971 19.7558 11.3188 17.232C11.2584 17.6383 11.2095 18.0458 11.172 18.4547C10.6327 24.9628 10.864 31.7525 10.6998 38.1935C10.4445 48.2077 13.5569 45.3232 17.7967 49.8724L17.7202 50.3042C17.5893 50.3874 17.3242 50.5747 17.1902 50.5408C15.0743 50.0258 2.52627 50.6241 1.74675 50.1871C2.38238 48.2571 5.35476 46.7303 6.49776 44.9304C7.97511 42.603 8.76868 14.3867 8.02584 10.804C6.97052 5.71432 3.0456 6.76801 0.127081 4.7327C-0.301967 4.43358 -0.148457 4.61461 -0.262939 4.01481C0.885787 3.22669 7.021 3.37312 8.63781 3.32916C11.6643 3.07582 13.2642 2.47603 14.7964 5.46878C16.1962 7.94679 17.1995 10.6675 18.4765 13.198C22.6119 21.3923 25.9023 30.8164 30.4974 38.6952Z" fill="white"/>
<path d="M288.454 3.07324L288.774 3.20304C288.995 4.13759 289.034 3.7066 288.761 4.54569C281.825 6.57814 282.124 8.09195 282.218 15.3858C282.332 24.4348 282.785 33.5316 283.459 42.5533C283.87 48.0623 290.242 48.0467 291.233 49.4955L291.09 49.9949C288.644 50.9807 281.473 49.7192 278.393 49.9793C277.157 50.0833 271.599 50.4891 270.72 50.2602L270.785 49.8649C271.779 48.6398 273.088 47.9635 274.357 46.9933C275.937 42.7016 274.287 22.9204 273.99 17.0275C269.864 23.725 266.226 33.368 262.605 40.5334C260.664 44.3741 259.776 47.3418 257.076 51.0015C252.528 44.0307 248.979 34.0178 245.31 26.3684C243.77 23.1546 242.731 20.3223 240.783 17.1558C240.343 20.9145 240.343 26.5315 240.265 30.3623C240.179 34.8678 239.659 39.9034 240.9 44.2778C241.74 47.2352 246.652 48.5149 247.326 49.8076L247.152 50.177C245.091 51.0718 240.598 50.0573 238.186 50.1822C236.75 50.255 231.488 50.8949 230.927 49.7842C232.128 47.7164 235.948 48.1664 236.547 42.6834C237.327 35.5347 237.504 28.4456 237.83 21.2467C238.066 15.9609 239.292 8.49328 233.307 5.88288C231.951 5.30961 231.052 5.62747 229.655 5.41913C229.152 4.68304 229.355 5.07501 229.387 3.94538L229.787 3.59267C232.74 3.02096 238.79 3.61296 242.089 3.24127C243.866 3.04125 246.894 10.6849 247.615 12.2658L254.755 27.9951C256.079 30.9147 258.085 35.6796 259.766 38.1961L259.995 38.5311C261.6 36.5046 263.494 32.0714 264.67 29.5513L271.519 14.831C273.358 10.8826 275.073 6.77401 277.539 3.1968C280.932 3.05062 284.934 3.15882 288.454 3.07324Z" fill="white"/>
<path d="M378.898 19.0635C379.84 20.2402 378.982 25.5295 378.235 26.8301C377.785 27.6133 376.598 28.2045 376.34 28.9658C375.955 30.1037 376.301 31.8169 376.122 33.0566C375.937 34.3507 375.063 35.7516 374.23 36.7275C368.972 42.8922 359.536 38.8592 357.175 41.126C356.668 41.6123 356.543 42.1954 356.595 42.8721C357.053 48.7382 372.167 44.0438 376.942 48.2627C378.081 49.2693 378.404 50.6529 378.461 52.1172C378.552 54.5179 377.79 56.7238 376.127 58.4717C372.594 62.1834 367.603 62.4905 362.832 62.7168C359.969 62.6544 355.512 62.357 353.181 60.7002C347.801 56.8715 350.327 52.7571 355.989 51.9482C355.557 51.5218 355.138 51.0849 354.727 50.6377C350.858 46.3981 353.41 42.7762 356.922 39.6152C344.983 31.2454 354.142 19.7452 365.694 21.2402C371.717 22.0198 375.162 27.6255 378.62 18.9199L378.898 19.0635ZM357.929 52.3408C356.288 53.4749 354.834 55.8756 356.27 57.6885C359.434 61.6835 365.748 61.7123 370.161 60.2715C377.318 55.6989 370.536 53.1033 365.686 53.1006C363.409 53.1006 360.302 52.4475 357.929 52.3408ZM362.655 22.6426C354.87 26.2588 357.693 39.7292 364.742 39.2295C370.164 36.8422 370.276 31.0734 368.514 26.0176C367.629 23.4787 365.254 22.5238 362.655 22.6426Z" fill="white"/>
<path d="M152.687 20.8879C161.138 20.8162 168.07 27.5617 168.228 36.009C168.385 44.4574 161.708 51.4537 153.26 51.6956C147.719 51.8567 142.519 49.0275 139.643 44.2913C136.766 39.554 136.655 33.6369 139.354 28.7961C142.052 23.9551 147.143 20.9353 152.687 20.8879ZM156.327 49.2903C167.162 44.7878 161.014 21.1615 149.73 23.2756C139.147 28.1058 145.322 51.7925 156.327 49.2903Z" fill="white"/>
<path d="M183.553 20.0776L183.853 20.0977C184.287 20.6735 184.239 25.2139 184.308 26.4707C188.335 22.326 192.427 19.6378 198.436 21.8451C207.967 25.346 202.996 39.2301 205.273 46.5044C205.714 47.909 209.036 48.5436 210.216 48.9234L210.431 49.3578L210.115 49.9352C208.277 50.9054 205.258 50.1511 203.139 50.1407C200.39 50.1251 197.33 50.4502 194.626 50.1771L194.404 49.839C195.161 48.9546 197.319 47.3862 197.351 46.3146C197.518 40.6851 198.651 32.6471 195.548 27.7806C195.352 27.5569 194.784 26.9366 194.565 26.8029C180.919 18.4642 184.156 42.0509 184.457 45.5369C186.701 49.0144 188.753 48.0833 190.46 49.878C189.514 50.1823 175.873 50.3904 174.097 50.2421L173.829 49.7973C174.252 48.8376 175.92 48.463 176.198 47.9298C178.186 44.0985 177.127 34.6284 177.251 30.597C177.454 23.9901 174.098 26.3287 172.464 24.857C172.654 24.3857 172.626 24.2981 173.378 24.0401C177.254 22.7104 179.841 21.9813 183.553 20.0776Z" fill="white"/>
<path d="M462.106 21.229C463.162 21.1495 464.307 21.2333 465.363 21.355C467.746 21.6302 470.299 22.2222 472.016 24.019C476.98 29.2122 471.616 43.5389 474.524 46.4341C475.703 47.6071 477.668 47.0165 479.135 47.0659L479.297 47.4429C478.836 48.6809 478.089 49.5291 476.872 50.0649C472.654 51.9143 469.552 51.3291 467.619 47.1597C463.204 50.234 457.074 53.2847 452.182 49.5601C451.376 48.4705 451.03 47.5604 450.772 46.2368C448.925 36.6694 460.592 35.0484 467.107 33.8901C467.318 30.8204 467.51 28.678 465.886 25.8062C464.606 23.5477 460.909 22.6687 458.838 24.1206C457.667 25.9135 459.098 28.1778 457.592 29.1001C453.077 31.8623 449.773 29.4719 453.083 24.7739C454.782 22.3627 459.296 21.552 462.106 21.229ZM463.901 36.0161C458.547 38.5342 454.329 46.4729 461.812 47.6304C468.748 46.8421 467.372 41.4447 467.089 35.8159L463.901 36.0161Z" fill="white"/>
<path d="M75.4941 21.238C92.3968 19.9052 86.1698 35.4768 87.4033 45.3279C87.7868 48.3893 91.6356 46.6652 92.6826 47.2869L92.6777 47.7556C91.5179 49.7062 88.2698 50.7363 86.1738 51.4021C83.1468 50.3747 82.4459 50.075 80.8613 47.1072C76.4389 50.2024 70.8141 53.2533 65.7441 49.6794C65.1092 48.9304 64.4433 47.8773 64.2656 46.9099C62.3275 36.344 73.2646 35.2698 80.4746 33.8406C80.6848 29.5106 80.1295 21.0653 72.2979 24.0652C71.5407 24.3552 71.4723 27.9646 71.3467 29.0603C61.6874 33.7131 62.7645 22.2337 75.4941 21.238ZM80.4658 35.9128C79.4888 35.9467 78.2076 35.9505 77.2607 36.0291C74.0756 37.5728 73.2478 38.4615 71.459 41.4724C71.3411 44.9359 71.0992 46.8682 75.0215 47.6589C82.0338 46.863 80.5515 41.63 80.4658 35.9128Z" fill="white"/>
<path d="M304.94 21.2295C321.032 20.0009 316.328 33.9467 316.695 44.0361C316.875 48.9071 320.949 46.6006 322.245 47.2637C321.911 49.6071 317.546 50.8717 315.558 51.3555C312.563 50.5153 312.048 49.7111 310.412 47.209C306.158 50.3952 300.436 52.7937 295.435 49.9717C294.433 48.7778 293.861 47.599 293.681 46.0332C292.56 36.2961 303.02 35.0984 309.907 33.9961C310.414 30.0262 310.084 24.0619 304.935 23.4922C300.429 22.9936 301.151 25.7048 301.071 29.168C297.267 30.4987 291.678 31.073 295.951 24.998C297.801 22.3701 301.833 21.5307 304.94 21.2295ZM308.112 35.7734C302.557 37.0916 297.496 44.252 303.202 47.5059C311.062 47.9376 309.774 43.71 310.052 37.6621C310.076 37.1472 309.974 36.7619 309.852 36.2754C309.334 35.7826 308.848 35.8397 308.112 35.7734Z" fill="white"/>
<path d="M413.625 21.1675C421.137 20.5192 427.766 25.907 427.525 33.6792C421.546 34.1599 414.934 33.6038 408.531 34.1362C408.419 44.7589 416.924 50.7622 426.151 43.9683C426.538 43.6691 426.806 43.4967 427.214 43.229L427.613 43.4087C427.607 44.1294 427.623 44.2262 427.189 44.8608C420.762 54.3545 405.062 53.5583 402.174 41.3257C400.041 32.2866 404.063 23.2582 413.625 21.1675ZM413.108 22.9429C410.878 24.0241 410.167 25.074 408.981 27.2163C405.554 33.4011 412.137 32.0841 415.806 31.9507C417.037 31.8912 419.385 31.9617 419.991 30.8618C422.302 26.6779 416.925 22.7038 413.108 22.9429Z" fill="white"/>
<path d="M434.716 6.97447C433.217 6.03497 431.997 5.98009 430.61 5.06765C430.779 4.61013 430.847 4.45744 431.391 4.28604C435.567 2.97303 438.939 1.9875 442.748 -0.247314C442.745 3.10022 442.493 6.49536 442.456 9.84497L442.425 31.1771C442.425 35.0542 442.103 43.0584 443.123 46.4236C444.319 47.5863 444.97 47.9842 446.51 48.5435C447.452 48.7489 447.907 48.7359 448.532 49.4538C448.134 50.6139 446.38 50.2758 445.339 50.2107C440.24 49.9272 435.926 50.2393 430.881 50.2653C432.002 49.3134 433.803 48.4082 434.547 47.1415C435.98 44.7069 435.629 11.0394 434.716 6.97447Z" fill="white"/>
<path d="M337.606 50.2316C333.157 49.8934 328.835 50.4995 324.831 50.1743L324.563 49.857C325.195 47.9973 327.859 47.9296 327.914 44.2986C327.992 39.2932 328.101 32.0758 327.62 27.0657C327.537 26.2014 324.485 25.3087 323.816 24.4678C324.555 23.9913 328.611 22.8203 329.764 22.3843C331.885 21.583 333.225 20.8952 335.233 19.8613C335.184 22.3705 335.176 24.88 335.205 27.3895C337.648 24.402 339.118 22.3851 342.604 20.6544C345.703 22.1013 346.26 22.6353 348.706 25.0551C347.738 27.5599 346.905 29.07 344.839 30.7966C341.132 27.9677 339.318 25.8531 335.439 29.6945C334.871 33.1456 334.533 41.9504 335.566 45.4066C336.081 47.1337 337.182 47.8464 338.727 48.5643C340.19 48.853 340.14 48.6189 341.134 49.4486L341.087 49.8752C339.773 50.6477 339.24 50.385 337.606 50.2316Z" fill="white"/>
<path d="M123.524 21.2237C126.189 21.0749 128.756 21.6807 131.246 22.5504C131.3 24.168 131.561 27.2799 131.268 28.7537C129.998 29.5821 127.262 22.7039 123.546 22.5913C118.4 22.4352 116.514 27.8717 120.969 30.268C126.284 33.0064 134.06 34.6736 132.714 42.5483C131.272 50.9858 125.91 51.9481 118.778 50.7074C117.033 50.4031 115.285 50.1144 113.534 49.8439C113.136 46.2467 113.307 42.3412 113.688 38.7528C116.208 42.2993 117.583 50.2211 123.316 49.6904C129.937 49.074 129.439 41.872 123.37 39.748C116.353 37.2916 110.261 32.5709 115.55 24.8357C117.217 22.3978 120.771 21.5478 123.524 21.2237Z" fill="white"/>
<path d="M241.254 76.6758C243.179 76.5717 246.663 76.2315 248.438 76.7881C254.672 78.7493 254.909 84.784 249.432 87.8896C250.987 90.6492 252.58 93.6741 254.422 96.249C255.564 97.8459 256.74 97.4482 258.767 97.6406C250.93 102.239 249.766 96.1112 246.348 90.0898C246.09 89.705 245.851 89.4344 245.56 89.0781C244.42 88.5632 243.153 88.6751 241.865 88.6543C241.748 92.1783 241.714 94.3397 242.544 97.7207C243.462 98.0198 244.342 98.1947 245.008 98.8682L244.854 99.1729C243.504 99.5525 237.328 99.4897 234.729 99.833C235.743 99.0294 236.929 98.2259 237.996 97.4717C238.207 92.9303 238.381 84.4323 237.785 79.7998C237.618 78.5124 234.047 77.342 232.612 76.7412C235.348 76.6398 238.322 76.7798 241.254 76.6758ZM242.273 77.8809C241.483 80.0606 241.824 84.7316 241.904 87.2207C244.17 87.2545 246.517 87.5176 248.552 86.5996C251.31 80.9033 248.078 77.8392 242.273 77.8809Z" fill="white"/>
<path d="M395.365 50.2496C390.794 49.9739 387.685 50.247 383.233 50.2392L383.004 49.9037C383.735 48.4133 386.097 48.2286 386.209 45.5626C386.42 40.457 386.407 35.2749 386.345 30.1699C386.274 24.5077 384.097 27.0427 382.247 25.372L382.33 24.6398C383.334 23.9846 386.982 22.9252 388.348 22.3933C390.409 21.5909 391.455 21.0129 393.416 19.8953C393.492 24.2213 392.659 44.3167 394.374 47.0165C395.037 48.0596 396.692 48.3873 397.803 48.7228C398.527 48.8425 398.984 48.8269 399.513 49.3185L399.422 49.7216C397.712 50.4915 397.252 50.3224 395.365 50.2496Z" fill="white"/>
<path d="M104.977 20.0745C106.194 21.6197 104.505 43.3909 106.134 46.4443C107.279 48.5928 110.696 48.3509 111.651 49.4433L111.561 49.9063C109.84 50.6658 101.082 49.9453 97.6546 50.2392L94.0317 50.3615C99.4915 46.4989 98.4044 45.2166 98.5098 38.7255C98.5676 35.1823 98.5062 31.532 98.3594 27.9949C98.3043 26.6665 95.335 25.9104 94.2857 25.2074L94.2787 24.7922C95.8749 23.6597 100.996 22.6786 104.977 20.0745Z" fill="white"/>
<path d="M213.714 76.3223C214.421 77.9686 215.466 80.0548 216.328 81.9248C218.589 86.825 220.538 92.7503 223.315 97.2891C223.755 98.0069 226.362 99.3082 227.259 99.7842C222.489 99.1183 219.903 99.0873 215.126 99.6543C219.415 96.6813 218.337 95.9787 216.151 91.5752C215.184 91.4218 214.261 91.3925 213.286 91.3379C210.717 91.2651 204.97 91.4477 206.2 96.3477C206.658 98.1684 209.489 98.933 211.196 99.5078C206.619 99.6197 206.321 98.8712 200.809 99.7217C205.272 96.1999 206.498 91.1614 208.706 86.0244C210.156 82.6743 211.703 79.3659 213.343 76.1016L213.714 76.3223ZM212.035 81.9248C210.757 84.4192 209.639 86.9921 208.688 89.627L212.135 89.6006L215.573 89.6582C214.919 87.9831 213.11 82.973 212.035 81.9248Z" fill="white"/>
<path d="M177.003 76.6138C184.753 76.723 198.216 74.1506 196.97 84.0371C196.245 89.7828 186.935 90.5319 185.936 88.1052C187.917 86.8385 190.939 90.636 193.278 83.6184C192.67 80.5075 191.863 78.3669 188.431 77.7166C187.369 77.7999 186.102 78.0365 185.033 78.2082C184.782 81.1344 184.477 95.1124 185.278 97.3389C186.384 98.3507 188.457 98.8032 189.959 99.2584C188.412 99.5315 186.047 99.4145 184.378 99.4275C181.81 99.4457 179.985 99.5992 177.426 99.9165C178.406 99.1596 179.532 98.4495 180.571 97.7602C180.955 94.189 181.198 81.8159 180.245 78.8793C179.192 77.4669 177.641 78.2758 177.003 76.6138Z" fill="white"/>
<path d="M292.458 76.3121C296.335 75.9714 297.634 77.9482 300.503 77.069C301.11 77.6257 301.229 82.3648 301.279 83.4988L301.045 83.7329L300.618 83.426C296.624 71.7239 284.309 80.0576 293.45 84.1647C298.385 86.3807 303.657 88.5656 301.43 95.422C300.777 97.4274 298.297 99.0244 296.452 99.7293C293.281 100.156 291.863 99.014 288.785 98.3793L288.509 98.3247C288.259 96.2023 287.507 94.2827 287.611 92.1238C288.483 92.4334 292.768 101.264 296.931 98.1504C306.092 91.2993 289.992 90.1132 288.28 85.2103C286.721 80.7417 288.55 77.956 292.458 76.3121Z" fill="white"/>
<path d="M265.802 76.5566C269.952 76.8896 273.572 76.4526 277.654 76.6191C276.561 77.1159 275.086 77.5996 273.933 78.0132C273.512 82.513 273.244 92.6441 274.43 97.2687C274.667 98.1895 277.178 98.4964 278.237 99.0504C277.282 99.5446 268.862 99.3001 266.312 99.5732C267.179 99.0972 269.645 97.9866 269.705 96.8291C269.992 91.2239 270.421 84.4196 269.479 78.921C269.328 78.0418 266.877 78.2785 265.802 76.5566Z" fill="white"/>
<path d="M389.019 4.60726C391.382 4.343 393.528 6.00011 393.872 8.35249C394.213 10.7046 392.628 12.9043 390.286 13.3239C388.702 13.6079 387.089 13.006 386.079 11.7539C385.067 10.5017 384.82 8.79832 385.431 7.31027C386.045 5.82221 387.419 4.78595 389.019 4.60726Z" fill="white"/>
<path d="M100.416 5.40391C102.663 4.44724 105.259 5.5017 106.202 7.75368C107.145 10.0059 106.074 12.5947 103.815 13.523C101.576 14.4433 99.0145 13.3839 98.0799 11.1517C97.1456 8.91973 98.1889 6.35198 100.416 5.40391Z" fill="white"/>
</g>
<defs>
<clipPath id="clip0_45_153">
<rect width="479" height="100" fill="white"/>
</clipPath>
</defs>
</svg>
