<svg width="709" height="100" viewBox="0 0 709 100" fill="none" xmlns="http://www.w3.org/2000/svg">
<g clip-path="url(#clip0_45_520)">
<path d="M43.1392 -1.40283C50.6302 -2.09852 58.5842 -0.524704 65.0698 3.18311C77.6162 10.3564 94.4764 23.2387 98.771 37.646C101.452 46.6419 102.382 64.8325 97.7222 72.5415C89.7892 85.6651 68.0055 92.3742 54.4653 96.3804C41.892 99.565 24.9314 103.367 13.0337 96.5503C6.76268 92.9142 2.21475 86.9107 0.411621 79.8892C-3.87211 63.6708 6.70356 37.4163 14.9331 23.6782C21.7767 12.2536 29.6836 1.98955 43.1392 -1.40283ZM88.0171 59.7368C78.6874 39.6232 49.1234 20.6095 26.5981 24.0542C11.1769 33.0427 12.3565 70.2933 34.1499 74.2788C49.3984 77.0674 58.9523 74.4541 73.8804 71.1929C78.7056 69.8998 91.595 67.4502 88.0171 59.7368Z" fill="white"/>
<path d="M418.332 -0.272653L446.444 -0.340332C453.131 22.2082 463.185 48.9421 470.792 71.7016L495.384 -0.2531L520.885 -0.27054L520.985 98.0665L500.85 98.1326L500.86 59.0446L500.866 30.3542C493.608 52.4439 485.689 75.7051 479.16 97.9581C472.891 98.2811 465.855 98.0977 459.522 98.066C453.432 77.7774 444.832 51.0129 437.584 31.2445L437.6 98.0544L418.3 98.1411L418.332 -0.272653Z" fill="white"/>
<path d="M649.113 -0.317139C657.994 -0.398548 666.875 -0.358259 675.756 -0.197021C686.46 32.0818 698.244 65.933 709.715 97.9866L686.424 97.9944C684.822 92.4019 682.861 85.1432 680.693 79.7024C680.302 78.727 679.63 78.834 678.679 78.6702L644.213 78.7229C642.416 85.1829 640.523 91.6163 638.53 98.0208L616.898 98.0627L637.367 36.0725C641.258 24.2531 645.672 11.5731 649.113 -0.317139ZM662.292 20.011C657.762 32.9899 653.374 48.7582 649.335 62.1008L662.286 62.1223L675.301 62.094C673.868 56.8687 664.005 22.4275 662.292 20.011Z" fill="white"/>
<path d="M348.146 -0.230713C356.959 -0.338025 365.903 -0.26465 374.726 -0.267822C376.655 7.73371 383.019 24.6241 386.043 33.3591L408.547 98.1013L385.388 98.1775C384.272 94.449 380.546 81.3361 378.944 79.0222L377.363 78.7429L343.087 78.7742C341.238 85.234 339.272 91.6601 337.191 98.0496C330.34 98.2626 322.695 98.1253 315.785 98.1433L348.146 -0.230713ZM360.991 20.0515C357.222 32.3189 351.254 50.1367 348.384 62.2566L361.239 62.3474L374.339 62.2234C372.568 56.5409 363.169 23.3825 360.991 20.0515Z" fill="white"/>
<path d="M284.388 -0.00289484C290.194 -0.486611 299.941 -0.294172 306.015 -0.336464C306.185 8.74841 306.905 94.53 305.813 97.9197L304.747 98.1708C297.971 98.1221 291.195 98.1259 284.419 98.1824C284.534 84.7119 284.496 71.2397 284.305 57.7697L243.462 57.756L243.461 98.1718C236.256 98.1576 229.051 98.2015 221.846 98.304C221.823 65.6535 221.475 32.3595 221.908 -0.239197L243.383 -0.248183C243.644 12.5341 243.441 26.1231 243.458 38.9651L284.36 38.9804L284.388 -0.00289484Z" fill="white"/>
<path d="M568.154 -1.79982C591.08 -2.69958 603.572 3.17954 612.442 25.6023C606.691 27.2802 598.106 28.9386 592.042 30.2719C588.776 20.4585 583.574 16.7315 573.16 15.624C556.863 13.6394 547.844 33.5897 566.854 38.1191C585.784 42.6312 612.965 41.6849 612.765 68.1973C612.585 91.3443 592.783 99.8519 572.97 99.9587C551.978 98.803 536.188 95.1162 529.501 72.1807C535.829 70.0978 543.393 68.0889 549.864 66.2C555.726 79.9994 563.391 82.8531 577.992 81.9459C582.163 81.6869 586.37 79.9185 588.982 76.5685C590.689 74.3968 591.408 71.6071 590.959 68.8803C588.363 53.7503 536.563 63.9712 534.94 34.9049C533.614 11.0908 545.83 0.408359 568.154 -1.79982Z" fill="white"/>
<path d="M129.633 -0.154811L150.857 -0.219844L150.853 46.8317L186.064 -0.00149799C194.155 -0.578256 202.043 0.184574 210.057 -0.279053C200.777 12.4086 191.399 25.0249 181.924 37.5676C186.765 48.7803 197.375 67.7636 203.291 79.2274C206.547 85.5829 209.856 91.9114 213.217 98.2118L189.535 98.206C181.857 82.494 173.762 66.7074 165.908 51.0625C161.097 57.401 155.77 63.7623 150.844 70.1478L150.855 98.2615L129.225 98.2504C129.504 74.9475 129.114 51.478 129.214 28.1777C129.235 23.2745 128.849 3.10749 129.633 -0.154811Z" fill="white"/>
</g>
<defs>
<clipPath id="clip0_45_520">
<rect width="709" height="100" fill="white"/>
</clipPath>
</defs>
</svg>
