<svg width="345" height="100" viewBox="0 0 345 100" fill="none" xmlns="http://www.w3.org/2000/svg">
<g clip-path="url(#clip0_45_646)">
<path d="M0.278021 2.1562C0.376786 1.56956 0.382598 0.66312 0.772051 0.544115C3.55019 -0.305349 10.2035 0.172685 13.0436 0.15123C13.2885 5.08006 12.2523 17.9675 14.5388 20.9279C16.8532 21.8973 18.5322 16.9186 19.5256 15.3001C26.9668 3.17464 37.6577 0.00742228 51.2993 0.213922C51.2818 8.09476 51.1618 16.3031 51.4122 24.1551C48.8804 24.2171 38.5821 24.9218 36.6937 23.5101C33.33 19.8525 41.5279 14.6893 37.6435 10.9127C36.4332 9.73602 34.6738 9.22613 33.0309 9.37229C14.5752 11.0162 17.5743 28.3562 17.3532 40.3837C11.9517 40.3807 5.54009 40.5467 0.223857 40.3472C0.165503 27.617 0.183547 14.8864 0.278021 2.1562Z" fill="white"/>
<path d="M188.045 0C188.098 6.15277 188.079 12.5022 188.235 18.6367C193.029 9.7569 198.615 5.47709 208.006 2.55762C211.231 1.55492 221.287 -0.242711 224.322 0.241211L224.972 0.697266C225.11 1.57855 225.281 4.37572 225.183 5.2002C224.585 10.2165 226.057 37.6382 224.824 40.0703C222.662 41.1358 181.317 41.136 176.135 40.8076L175.832 39.6641L175.619 40.3379C174.597 40.0468 174.4 39.9477 173.416 40.3037C173.412 27.2306 173.153 13.0476 173.574 0.0644531C173.692 0.527928 173.804 0.820777 173.963 1.26465L174.012 0.931641C175.429 1.29783 175.14 0.657282 175.69 0.8125L175.785 1.08691L176.158 0.0078125C180.12 0.054141 184.083 0.0513977 188.045 0ZM203.868 9.52344C203.506 9.53014 203.144 9.5548 202.785 9.59668C185.559 13.5507 186.876 25.7796 187.035 39.8018L201.665 39.7559C222.697 39.8212 219.274 9.12995 203.868 9.52344Z" fill="white"/>
<path d="M54.3835 0.243408C59.4075 0.00306609 65.718 0.148686 70.8132 0.136963L104.208 0.190674C104.398 13.4826 104.256 26.9564 104.367 40.2922C100.288 40.3807 96.2072 40.3903 92.1277 40.3206L92.0662 34.7756C92.0803 30.5717 91.7048 25.8216 92.0007 21.6887C85.1139 36.7997 69.2358 39.8347 54.2244 40.5051C53.9145 29.0391 54.3144 17.4379 54.1853 5.96021C54.1637 4.04589 54.2298 2.1527 54.3835 0.243408ZM91.9656 5.19653C85.543 3.54487 81.9463 3.50225 75.28 3.66919C56.6516 4.93845 61.7281 37.5627 79.7341 32.4368C92.989 26.5422 91.9207 17.9296 91.9656 5.19653Z" fill="white"/>
<path d="M231.544 0.29541C237.138 0.0677967 266.396 -0.680865 269.639 1.07959C270.573 1.58707 271.509 2.69586 271.762 3.73096C272.267 5.79897 272.184 31.9734 271.995 35.022C271.93 36.073 271.829 37.0159 271.268 37.939C270.355 39.4387 269.02 39.8509 267.428 40.2749C262.933 40.6232 233.589 40.9527 230.516 39.8833C229.353 39.4789 227.813 38.0534 227.396 36.8862C226.499 34.3778 226.621 4.7216 227.662 2.74268C228.443 1.26069 230.059 0.776109 231.544 0.29541ZM263.164 26.8423C264.482 4.13114 257.437 5.00085 238.526 5.30322C235.463 6.71553 235.759 9.09584 235.944 12.3687C236.241 17.6028 235.124 23.9252 237.38 28.7319C238.847 31.8971 241.57 34.3182 244.902 35.4185C248.829 36.7549 256.34 36.3508 260.575 36.2466C264.156 34.6107 262.965 30.2703 263.164 26.8423Z" fill="white"/>
<path d="M274.263 0.150367L285.447 0.149691C285.527 4.3122 284.99 27.0087 286.25 28.9822C287.156 29.723 287.279 29.7827 288.447 29.8846C297.144 27.3332 296.801 19.097 296.565 11.8055C296.441 7.99265 296.533 3.99339 296.585 0.166449L307.943 0.17985C308.023 8.77941 307.812 17.437 308.052 26.0365C308.085 27.2061 308.125 28.0308 309.004 28.779C317.702 30.9318 320.505 22.4161 317.188 15.6824C314.452 10.1304 304.485 0.27775 317.194 0.177518C319.969 0.139302 326.527 -0.129551 328.818 0.482237C329.518 1.06888 329.622 1.0843 329.798 2.10372C332.545 17.8855 311.037 37.7554 296.674 40.5555C296.429 35.8848 296.528 31.1176 296.562 26.4351C292.995 29.888 280.002 41.5347 274.768 40.1144C273.859 38.6115 274.249 3.84523 274.263 0.150367Z" fill="white"/>
<path d="M120.746 0.739663C124.906 0.642448 129.067 0.636761 133.227 0.722579C133.256 6.64904 133.379 12.9037 133.172 18.7976C139.627 5.2002 156.823 0.403778 170.849 0.671959C170.417 13.542 170.683 27.6013 170.687 40.5605C168.605 41.0486 159.484 40.875 158.013 39.4308C157.654 36.9632 159.825 31.614 160.736 28.9536C163.695 20.3048 157.78 9.50281 147.646 9.29497C144.2 9.22625 140.877 10.5625 138.452 12.9915C131.503 19.8771 133.173 31.315 133.198 40.7328C129.612 40.8545 124.185 41.0513 120.739 40.6369C120.584 27.4129 120.724 13.9788 120.746 0.739663Z" fill="white"/>
<path d="M108.882 0.308162C111.54 0.18614 116.59 -0.341168 118.684 1.03259C119.679 4.09756 119.259 34.0557 118.954 39.3908C118.924 39.9222 118 40.1602 117.463 40.364C115.681 40.3938 113.898 40.4052 112.115 40.3989C110.541 40.3798 108.433 40.4549 107.339 39.3362C106.46 34.7822 106.734 7.33048 107.475 1.32423C107.547 0.740941 108.338 0.53511 108.882 0.308162Z" fill="white"/>
</g>
<g clip-path="url(#clip1_45_646)">
<path d="M318.464 57.1548C321.972 57.1465 326.735 56.9396 330.145 57.4341L330.154 77.7671C326.262 77.0968 321.176 76.2519 318.749 72.8384C315.608 68.4195 318.732 61.793 311.046 60.7212C308.364 60.3476 300.704 60.1033 298.413 61.3228C297.108 63.1184 299.481 66.1572 300.8 67.4683C310.352 76.9691 323.447 83.9846 330.131 96.0386L330.216 98.1011C320.687 98.2948 311.154 98.3722 301.622 98.3345C295.313 98.3372 286.78 98.4902 280.61 98.0054L280.532 77.4302C286.971 79.437 291.92 80.1633 293.354 87.728C293.596 88.9993 293.716 91.1764 294.389 92.2573C295.565 94.1526 298.573 94.8734 300.593 95.2017C303.472 95.6697 309.411 96.3784 311.732 94.4712C312.242 94.051 312.433 93.5514 312.437 92.8882C312.457 87.3762 289.027 71.2813 284.098 66.52C280.559 63.0997 280.362 62.0744 280.253 57.2202C292.974 57.0396 305.74 57.1836 318.464 57.1548Z" fill="white"/>
<path d="M163.27 57.0527C179.087 58.5345 193.233 60.0882 201.626 75.917C201.966 69.5089 201.667 63.5689 202.099 57.0928C205.474 57.1305 211.318 57.0253 214.489 57.4277C214.272 71.0542 214.466 84.6373 214.289 98.2041C202.156 98.3353 190.023 98.3715 177.891 98.3135C175.848 98.3124 164.791 98.4592 163.467 98.0781C163.059 97.2851 163.031 97.218 162.857 96.3457C163.296 94.1438 163.211 85.5702 163.208 83.0723C163.137 74.3992 163.157 65.7255 163.27 57.0527ZM185.852 65.0166C184.679 65.0121 183.503 65.0526 182.334 65.1367C173.968 68.1281 170.752 78.5606 173.601 86.5176C174.831 89.9611 177.397 92.7497 180.705 94.2383C184.275 95.8777 188.609 95.914 192.44 95.3213C195.445 95.0291 198.732 94.7752 201.68 94.2656C201.829 82.786 201.717 65.1952 185.852 65.0166Z" fill="white"/>
<path d="M236.542 57.2798C247.726 56.5964 260.96 57.3082 272.281 57.3755C275.837 57.3968 277.958 60.0785 277.778 63.7505C277.275 73.9508 278.455 84.7937 277.197 94.8618C277.017 96.3449 275.208 97.457 274.025 98.0786C269.364 98.7445 260.447 98.2991 255.525 98.4038C249.926 98.523 243.28 98.4296 237.633 98.1909C235.016 98.0803 234.172 96.811 232.619 94.8794C232.269 90.4528 231.915 62.4831 232.983 59.9214C233.571 58.5076 235.229 57.8189 236.542 57.2798ZM268.736 86.5669C269.44 62.3436 266.128 62.019 243.793 62.4634C240.778 63.7658 241.471 66.7728 241.315 69.6597C240.166 91.0258 245.694 95.984 266.298 93.894C269.354 92.6625 268.647 89.5966 268.736 86.5669Z" fill="white"/>
<path d="M157.174 57.5097C158.652 58.3749 159.033 57.9281 160.305 57.0224C160.198 65.683 160.179 74.3447 160.247 83.0056C160.25 85.5 160.331 94.0608 159.914 96.2596C159.572 97.2876 159.779 97.1144 159.095 97.7512C158.333 97.588 158.21 97.5709 157.516 97.2197L157.029 98.0839C155.887 98.4343 147.263 98.2971 145.566 98.2913C145.353 92.4587 145.469 85.8443 145.453 79.9527C136.419 94.9517 124.491 97.7715 108.7 98.2786C108.509 84.6355 109.055 70.6779 108.764 57.1754C111.517 57.0824 116.368 56.3486 118.304 58.7833C120.086 63.3324 107.561 72.2214 116.336 82.0458C123.649 90.2332 131.559 90.9074 139.998 83.9373C148.183 77.1771 144.914 67.0187 145.64 57.152C147.951 57.1112 155.27 56.7951 157.174 57.5097Z" fill="white"/>
<path d="M0.0517776 57.1731L31.7556 57.1824C37.1642 57.179 44.157 56.9791 49.467 57.2727C49.467 64.0638 49.5384 70.8546 49.6846 77.644C45.7786 77.0225 41.0533 76.0757 38.5886 72.6647C35.0259 67.7345 38.9353 59.3046 30.3652 58.3795C22.6993 57.5526 11.9364 56.7418 21.6658 67.0892C31.7828 77.8497 44.3848 84.0306 50.2217 98.1781C45.7106 98.2025 34.4888 97.9954 30.3958 98.4882L28.4649 98.1977L28.6382 97.9247C36.5115 96.1953 27.8054 87.8675 25.0722 85.2456C18.8171 79.2419 11.8447 74.0696 5.57938 68.0796C1.38099 64.0704 -0.199786 63.1665 0.0517776 57.1731Z" fill="white"/>
<path d="M52.1049 57.1445C69.9728 57.3842 88.2417 57.1253 106.167 57.1943C106.171 61.584 106.256 66.1939 105.926 70.5544L100.946 70.5939C98.3926 68.4589 95.2413 65.7224 91.9506 65.083C74.5587 61.7032 83.3192 86.5209 68.2186 95.8233C63.3403 98.3679 57.7447 98.3006 52.3871 98.325C52.1899 91.639 51.9893 84.2328 52.4245 77.5839L61.3448 77.4544C62.1573 80.9894 63.8468 86.7283 68.5245 86.2286C77.1627 85.3063 84.0433 63.3989 70.6289 64.6819C67.3211 64.8584 64.8395 65.529 62.0043 67.2244C59.7402 68.576 55.2563 71.9198 52.6862 70.1763C51.3196 68.3528 52.0098 59.9869 52.1049 57.1445Z" fill="white"/>
<path d="M220.071 57.2907C222.72 57.1441 226.87 56.6987 229.032 58.0891C229.787 59.9456 229.777 93.9005 229.481 97.4599C228.774 98.2387 228.489 98.0711 227.285 98.3029C225.541 98.3438 217.556 99.0777 217.522 96.8988C217.447 92.29 216.481 60.2948 217.678 58.2392C218.44 57.3972 218.973 57.4343 220.071 57.2907Z" fill="white"/>
<path d="M0.160743 77.2458C12.6471 81.7784 11.9706 80.9893 13.5412 94.1151C15.6693 96.2102 16.5872 96.6017 19.436 97.4928L22.8219 97.7865L22.8865 98.192C21.802 98.3153 20.7108 98.4035 19.6195 98.4561C14.7242 98.1378 4.09398 98.7851 0.126757 98.0598C0.0281709 91.122 0.0383611 84.1833 0.160743 77.2458Z" fill="white"/>
<path d="M19.4359 97.4929L22.8218 97.7865L22.8864 98.1921C21.802 98.3154 20.7107 98.4036 19.6195 98.4562C14.7242 98.1378 4.09394 98.7851 0.126709 98.0599C3.50922 97.7199 17.9436 98.4733 19.4359 97.4929Z" fill="white"/>
<path d="M22.822 97.7867C24.4673 97.7396 27.1224 97.5446 28.6385 97.9247L28.4652 98.1977L30.3961 98.4883C27.1054 98.707 22.873 98.9044 19.6196 98.4563C20.7109 98.4038 21.8021 98.3155 22.8866 98.1922L22.822 97.7867Z" fill="white"/>
</g>
<defs>
<clipPath id="clip0_45_646">
<rect width="330" height="41" fill="white"/>
</clipPath>
<clipPath id="clip1_45_646">
<rect width="330" height="42" fill="white" transform="translate(0 57)"/>
</clipPath>
</defs>
</svg>
