<svg width="317" height="100" viewBox="0 0 317 100" fill="none" xmlns="http://www.w3.org/2000/svg">
<g clip-path="url(#clip0_45_555)">
<path d="M6.25939 9.93941C8.88874 9.76697 13.8161 10.0089 16.724 9.98791C26.1697 9.96035 35.6154 9.8847 45.0605 9.76099C46.2437 14.5409 48.4236 20.4056 49.8142 25.308C54.1601 40.6287 59.3152 55.9962 63.2453 71.4031C66.841 63.2941 67.9375 56.1792 70.1565 47.6315C73.5298 35.0747 76.7509 22.4772 79.8188 9.84196L103.046 9.97124C107.675 9.95714 113.683 9.68897 118.183 9.90265C115.571 10.7407 111.25 11.4409 109.244 13.2712C105.758 16.4507 106.851 23.1704 107.146 27.395C107.293 29.5029 107.549 31.7678 107.747 33.8986L109.552 53.8625L111.638 77.1148C112.169 82.8933 111.622 94.5234 118.194 96.2819C119.405 96.6067 121.183 96.4465 121.95 97.3332L121.803 97.7435C120.303 97.97 117.426 97.8845 115.825 97.8845L105.573 97.8824C102.1 97.8824 74.0515 98.1217 72.9778 97.6409C72.9689 97.3353 73.0013 97.1537 73.4224 97.0918C85.4105 95.299 82.312 80.8465 81.6176 71.7678L79.4279 44.8202C78.6238 37.7003 78.3572 32.7809 77.1375 25.3484C75.8913 29.8135 74.9266 34.4445 73.7642 38.9633L64.3787 75.5635C62.9454 81.2135 60.4491 92.4601 58.5012 97.6687C54.3133 98.4251 48.1158 99.3631 43.8893 99.876C37.7302 82.3119 32.2878 64.333 26.1896 46.7328C23.4942 38.9537 20.7318 31.4965 18.9193 23.4353C16.1327 30.0977 15.9537 43.7475 15.3035 51.2828L13.7723 69.8347C13.0815 79.2283 11.1026 93.5512 23.1454 96.517C24.0915 96.7499 25.6684 96.6452 26.2861 97.1174L26.2917 97.5383C25.4795 98.0362 2.93702 98.0533 0.372953 97.7029C0.261299 97.158 2.99592 96.3781 3.47603 96.205C11.5083 93.3118 11.4382 80.0563 12.0199 73.0106L13.5468 54.5012C14.1425 47.9648 14.8498 41.5251 15.2839 34.8509C15.6602 28.2328 18.1644 20.327 14.8761 14.1618C13.2379 11.0905 8.27204 11.53 6.13998 10.2582L6.25939 9.93941Z" fill="white"/>
<path d="M246.079 4.42822L246.288 4.69489C245.739 8.48207 245.897 17.2058 245.893 21.2983L245.878 50.4314V77.5032C245.867 81.9919 245.634 90.3688 246.275 94.5022C248.164 96.6752 250.05 96.9616 252.731 97.7436C248.997 98.0492 212.166 98.1261 211.098 97.6987L211.001 97.1816C212.886 96.6368 214.906 96.109 216.346 94.6902C218.416 92.6505 218.254 88.4949 218.281 85.7361C218.358 78.1639 218.753 16.2624 217.908 14.1443C216.743 11.2325 212.945 11.9566 211.149 10.1289L211.288 9.9184C219.817 8.77225 228.118 7.11797 236.588 5.63827C239.623 5.10814 243.013 4.50429 246.079 4.42822Z" fill="white"/>
<path d="M202.421 4.38163L202.673 4.31689C203.062 4.57352 202.82 29.0064 202.82 31.271L202.818 71.0763C202.82 75.9791 202.474 91.4331 203.438 95.25C205.537 96.6859 207.543 97.0663 209.972 97.6688C207.031 97.9829 202.878 97.8782 199.836 97.8804L183.63 97.8889C181.436 97.891 169.536 98.0299 167.983 97.7158C169.128 96.2415 173.565 95.812 174.23 93.6731C176.1 87.6564 175.443 78.1368 175.442 71.9613L175.437 43.9389L175.432 26.4286C175.431 23.1938 175.665 18.0447 175.071 15.0019C174.398 11.5549 170.104 11.4917 168.05 10.4237L168.031 10.1231C169.486 9.70321 176.944 8.55451 178.95 8.26027C185.997 7.22758 195.479 4.85257 202.421 4.38163Z" fill="white"/>
<path d="M285.622 33.4268C302.064 32.7721 313.317 43.0856 316.524 58.9756C317 61.3437 317.103 63.6633 317.265 66.0684C304.115 65.7902 291.021 65.9478 277.89 65.7783C279.144 77.8614 281.607 93.7137 297.675 93.5684C305.275 93.4999 309.684 89.1317 314.721 84.0166C315.443 83.3134 315.815 82.7708 316.754 82.7783C317.73 83.9272 316.716 84.9765 315.872 85.9502C309.255 93.5382 301.227 97.265 291.379 98.0791C272.27 99.6601 254.951 89.9904 254.002 69.126C253.573 59.7693 256.911 50.6305 263.268 43.7529C269.563 36.8562 276.388 33.8597 285.622 33.4268ZM286.586 39.5391C278.922 41.9359 278.229 55.9291 277.881 62.7334C280.577 62.7787 283.273 62.8087 285.971 62.8232L294.36 62.8037C293.973 56.905 294.165 45.4428 289.679 40.791C288.869 39.9499 287.725 39.6675 286.586 39.5391Z" fill="white"/>
<path d="M159.075 35.3485C159.509 35.2297 159.293 35.2318 159.727 35.4247C159.989 36.8254 159.762 38.6376 159.766 40.1046C159.808 57.2617 159.601 74.432 159.855 91.5856C159.867 92.4042 160.111 94.1944 160.459 94.9059C161.129 96.2799 163.699 96.4529 164.775 97.5598L164.642 97.7521C161.781 97.9893 158.127 97.8931 155.209 97.891L140.264 97.8846C138.208 97.8824 126.287 98.0469 124.949 97.6837L124.872 97.4252L125.349 97.2115C127.553 96.6089 130.876 95.141 131.563 92.7059C132.616 88.7053 132.593 84.3102 132.568 80.1863C132.508 69.9754 132.776 59.782 132.42 49.5777C132.182 42.7337 129.599 42.6893 123.79 40.7745C124.94 40.62 126.153 40.6589 127.313 40.5476C137.978 39.5232 148.439 36.7021 159.075 35.3485Z" fill="white"/>
<path d="M145.047 0.195068C146.829 2.58161 158.098 13.8275 160.427 15.4008L160.584 15.5047C159.764 16.8846 155.149 21.3414 153.831 22.657C150.919 25.5553 148.031 28.4773 145.167 31.4226C144.19 31.1369 131.029 17.3628 129.462 15.4141C131.359 14.147 134.647 10.6528 136.296 8.98886L145.047 0.195068Z" fill="white"/>
</g>
<defs>
<clipPath id="clip0_45_555">
<rect width="317" height="100" fill="white"/>
</clipPath>
</defs>
</svg>
